<svg width="402" height="591" viewBox="0 0 402 591" fill="none" xmlns="http://www.w3.org/2000/svg">
<path d="M207.413 304.357C201.313 294.982 208.509 278.888 212.87 272.014C213.216 271.92 214.832 271.648 218.528 271.31C222.224 270.972 241.682 277.635 250.949 281.009C250.999 285.313 251.528 293.861 253.244 293.617C255.39 293.312 254.114 298.894 255.328 301.322C256.299 303.264 252.216 304.919 250.053 305.504L252.023 322.058L241.336 349.477C234.984 342.467 221.64 326.692 221.777 325.552C221.915 324.412 221.638 318.516 221.145 314.974C219.109 315.341 213.512 313.731 207.413 304.357Z" fill="white" stroke="black" stroke-width="3"/>
<path d="M118.325 206.63C122.352 213.034 151.484 268.493 155.395 268.538C166.313 247.12 154.398 196.876 162.67 196.568C170.941 196.261 238.101 202.629 228.685 192.497C214.152 176.859 168.92 160.979 171.841 156.331C180.305 142.86 188.895 101.018 181.801 108.715C174.696 116.424 150.953 129.55 137.731 135.238C119.386 126.786 83.0226 111.503 84.3296 117.984C85.6366 124.466 98.4004 152.855 104.619 166.24C106.325 169.913 54.8452 208.747 69.84 210.646C88.5835 213.019 113.439 198.857 118.325 206.63Z" fill="#3BB753"/>
<path d="M233.234 563.604C234.561 561.922 234.082 557.128 233.676 554.941L215.864 549.836C206.387 555.981 178.45 569.047 187.106 572.219C197.925 576.183 231.574 565.706 233.234 563.604Z" fill="black"/>
<path d="M296.775 461.812C294.122 455.088 286.304 413.474 283.679 387.634L218.249 407.256L214.567 550.186C215.796 550.956 219.446 552.78 224.209 553.917C228.973 555.055 233.29 555.228 234.853 555.173L252.165 424.542L257.095 423.209C262.312 445.592 261.891 464.631 280.795 492.315C287.572 502.24 303.19 494.803 309.451 491.181C315.712 487.559 351.021 455.412 351.365 452.563C351.64 450.284 344.72 439.661 341.226 434.634C327.321 445.009 300.568 471.423 296.775 461.812Z" fill="black"/>
<path d="M348.345 430.228C346.199 430.119 342.506 433.275 340.927 434.866L346.826 452.283C357.296 456.438 383.981 471.598 381.686 462.736C378.817 451.659 351.027 430.363 348.345 430.228Z" fill="black"/>
<path d="M209.631 328.008C214.713 329.5 220.318 326.68 222.486 325.084C239.011 339.853 250.04 321.934 251.421 321.89C255.986 321.747 278.497 319.033 284.663 325.358C288.483 329.276 313.703 366.838 312.446 373.517C311.44 378.86 301.236 385.275 296.261 387.815L275.569 354.55L286.103 388.357C281.017 390.834 266.961 397.281 251.419 403.247C235.878 409.214 222.082 410.445 217.127 410.315C213.709 394.244 206.452 361.775 204.762 360.468C202.649 358.834 158.696 321.938 158.832 318.319C158.94 315.423 168.558 306.226 173.354 301.99C183.328 310.041 204.548 326.516 209.631 328.008Z" fill="#3BB753"/>
<path d="M158.396 327.137C158.198 326.792 157.695 326.774 157.667 327.217C156.939 326.962 156.268 326.479 155.626 325.966C155.623 325.964 155.623 325.964 155.621 325.962C154.477 325.411 153.516 322.865 152.376 323.325C150.173 325.218 160.05 330.88 158.396 327.137Z" fill="#231F20"/>
<path d="M154.806 332.28C153.636 331.899 152.554 330.646 151.591 329.562C151.611 329.586 151.633 329.613 151.656 329.639C150.908 329.015 150.296 327.067 149.412 327.432C148.057 328.855 154.328 333.952 155.312 333.545C155.909 333.328 155.321 332.018 154.806 332.28Z" fill="#231F20"/>
<path d="M275.593 351.06C275.385 350.153 275.275 348.094 274.31 347.776C273.92 347.801 273.873 348.315 274.179 348.49C274.65 349.3 274.175 351.277 275.059 351.531C275.337 351.581 275.615 351.359 275.593 351.06Z" fill="white"/>
<path d="M209.411 357.705C209.819 356.863 211.024 355.176 210.471 354.332C210.151 354.11 209.792 354.486 209.921 354.812C209.78 355.739 208.17 357.002 208.7 357.747C208.885 357.957 209.241 357.954 209.411 357.705Z" fill="white"/>
<path d="M272.719 349.19C273.199 348.374 271.636 347.903 271.125 347.502C270.352 347.375 270.718 348.209 271.212 348.343C271.733 348.537 272.124 349.478 272.719 349.19Z" fill="white"/>
<path d="M208.343 354.463C209.23 354.118 208.306 352.784 208.159 352.154C207.635 351.577 207.397 352.459 207.699 352.869C207.984 353.343 207.699 354.323 208.343 354.463Z" fill="white"/>
<path d="M210.017 359.227C210.401 360.087 211.708 359.105 212.337 358.927C212.897 358.38 211.999 358.189 211.598 358.509C211.132 358.815 210.132 358.582 210.017 359.227Z" fill="white"/>
<path d="M236.863 298.186C238.529 298.14 240.694 297.986 241.689 295.497C242.063 294.285 242.738 292.452 241.957 291.457C239.005 287.844 234.453 287.244 230.56 288.56C229.106 289.078 229.715 291.666 230.288 292.801C231.617 296.066 234.196 298.111 236.863 298.186ZM236.147 296.15C233.861 295.705 231.585 293.787 230.815 290.527C231.111 290.452 231.413 290.452 231.711 290.407C231.708 290.407 231.705 290.406 231.703 290.406C231.731 290.401 231.759 290.399 231.787 290.394C231.779 290.393 231.773 290.397 231.765 290.396C232.497 290.297 233.22 290.35 233.943 290.407C233.929 290.406 233.915 290.404 233.904 290.403C235.005 290.5 236.11 290.635 237.184 290.939C237.152 290.928 237.119 290.92 237.087 290.909C237.259 290.963 237.428 291.016 237.597 291.065C237.565 291.053 237.533 291.046 237.5 291.035C237.688 291.094 237.879 291.149 238.07 291.204C238.065 291.204 238.06 291.199 238.054 291.199C238.086 291.21 238.116 291.217 238.148 291.228C238.145 291.228 238.143 291.228 238.143 291.228C238.172 291.235 238.199 291.246 238.229 291.252C238.226 291.252 238.223 291.252 238.223 291.252C238.255 291.263 238.285 291.27 238.317 291.281C238.309 291.277 238.298 291.276 238.29 291.275C238.756 291.426 239.211 291.609 239.662 291.829C239.659 291.829 239.657 291.825 239.654 291.824C240.027 292.024 240.398 292.24 240.758 292.48C240.777 292.593 240.811 292.695 240.857 292.785C240.537 296.061 237.833 296.053 236.147 296.15Z" fill="#231F20"/>
<path d="M215.159 292.698C216.702 292.714 218.71 292.648 219.72 290.381C220.109 289.272 220.8 287.6 220.114 286.651C217.513 283.203 213.324 282.487 209.675 283.567C208.311 283.995 208.782 286.411 209.271 287.482C210.383 290.55 212.694 292.535 215.159 292.698ZM214.57 290.789C212.472 290.296 210.435 288.441 209.84 285.396C210.116 285.338 210.396 285.349 210.673 285.317C210.671 285.317 210.668 285.316 210.666 285.316C210.692 285.312 210.718 285.312 210.744 285.307C210.736 285.306 210.731 285.31 210.723 285.309C211.405 285.244 212.072 285.318 212.738 285.396C212.725 285.394 212.713 285.393 212.702 285.391C213.717 285.52 214.734 285.684 215.716 286.003C215.687 285.991 215.657 285.983 215.628 285.972C215.785 286.027 215.94 286.083 216.094 286.134C216.065 286.122 216.035 286.115 216.006 286.103C216.178 286.164 216.352 286.222 216.527 286.28C216.522 286.279 216.517 286.275 216.512 286.274C216.542 286.286 216.569 286.293 216.598 286.305C216.596 286.304 216.593 286.304 216.593 286.304C216.62 286.312 216.645 286.323 216.672 286.33C216.669 286.33 216.667 286.329 216.667 286.329C216.696 286.341 216.723 286.348 216.753 286.36C216.746 286.355 216.735 286.354 216.728 286.353C217.154 286.509 217.568 286.695 217.977 286.914C217.975 286.914 217.973 286.91 217.97 286.91C218.308 287.108 218.643 287.321 218.968 287.556C218.981 287.661 219.009 287.756 219.048 287.841C218.634 290.861 216.133 290.758 214.57 290.789Z" fill="#231F20"/>
<path d="M233.139 294.146C235.049 294.663 236.532 291.193 234.79 289.698C233.561 288.506 230.99 289.322 231.004 291.85C230.672 292.412 231.002 293.396 231.533 293.193C231.969 293.767 232.497 294.153 233.139 294.146Z" fill="#231F20"/>
<path d="M211.858 288.827C213.606 289.374 215.103 286.214 213.545 284.769C212.451 283.623 210.043 284.287 209.965 286.627C209.638 287.135 209.908 288.058 210.406 287.888C210.789 288.435 211.264 288.811 211.858 288.827Z" fill="#231F20"/>
<path d="M231.36 282.722C234.376 281.172 241.135 279.528 244.047 285.355" stroke="black" stroke-width="3" stroke-linecap="round"/>
<path d="M219.85 280.322C218.937 279.007 215.852 276.663 210.814 277.804" stroke="black" stroke-width="3" stroke-linecap="round"/>
<path d="M224.668 287.839C224.156 289.723 222.396 293.855 219.448 295.313C215.764 297.137 217.895 299.868 222.117 299.002" stroke="black" stroke-width="2" stroke-linecap="round"/>
<path d="M218.576 305.471C219.461 307.713 222.509 310.747 227.276 305.717" stroke="black" stroke-width="3" stroke-linecap="round"/>
<path d="M159.61 318.108C143.698 294.828 117.601 260.221 116.184 230.634C115.884 224.376 121.451 218.186 125.932 217.25C129.517 216.501 127.036 219.616 126.006 221.64C126.945 220.651 130.562 219.746 132.252 221.053C133.942 222.36 131.17 223.918 130.041 225.234C131.799 223.84 136.182 223.022 135.907 225.301C135.564 228.15 129.683 231.118 130.863 235.484C137.886 261.458 158.546 284.391 175.485 304.721" stroke="black" stroke-width="3" stroke-linecap="round"/>
<path d="M207.445 263.283C208.418 268.531 212.251 271.445 214.046 272.246C224.073 274.312 244.893 279.008 247.954 281.267C251.016 283.526 249.966 292.482 249.058 296.678C249.974 295.603 252.036 294.715 252.954 299.758C253.873 304.801 251.217 305.005 249.774 304.476L250.959 312.975C263.418 299.152 264.244 280.396 254.325 264.662C250.912 259.246 239.467 252.97 236.094 253.882C233.395 254.612 234.038 258.296 234.697 260.047C232.48 257.34 227.54 252.116 225.519 252.883C222.994 253.842 224.573 258.651 223.136 258.488C221.7 258.326 219.167 251.018 216.001 252.701C212.836 254.384 216.301 258.959 215.592 259.426C214.883 259.893 212.456 255.038 209.254 254.525C206.052 254.013 206.227 256.722 207.445 263.283Z" fill="black"/>
<path d="M235.369 272.984C237.171 272.027 235.104 267.324 233.931 266.355C233.076 266.089 232.629 267.321 233.113 267.957C233.843 269.124 234.702 270.354 234.844 271.799C234.565 272.247 234.84 272.988 235.369 272.984Z" fill="white"/>
<path d="M229.402 268.959C230.936 268.612 229.281 266.842 228.987 266.04C229.006 266.072 229.025 266.105 229.044 266.137C228.605 265.495 228.165 263.983 227.059 264.524C226.599 264.822 226.625 265.443 226.953 265.835L226.949 265.83C226.973 265.863 226.993 265.891 227.016 265.925C227.001 265.901 226.985 265.877 226.969 265.858C227.893 266.763 228.192 268.432 229.402 268.959Z" fill="white"/>
<path d="M221.677 267.383C223.061 266.573 221.025 264.6 220.492 263.707C219.815 262.804 218.785 264.064 219.499 264.767C220.442 265.412 220.632 267.098 221.677 267.383Z" fill="white"/>
<path d="M310.195 371.369C310.801 372.583 312.223 374.955 313.053 374.73C314.091 374.45 315.301 314.041 317.198 306.638C319.095 299.235 324.75 294.399 325.236 296.197C325.625 297.635 324.745 301.934 324.256 303.903C325.316 302.33 327.931 299.161 329.911 299.067C331.891 298.973 330.763 303.246 329.951 305.395C331.467 303.791 334.727 301.017 335.642 302.754C336.786 304.925 333.449 308.032 333.383 311.908C333.317 315.784 332.111 380.326 330.283 387.985C328.456 395.645 327.114 405.103 321.387 405.549C315.659 405.995 297.577 388.561 296.484 385.549" stroke="black" stroke-width="3" stroke-linecap="round"/>
<path d="M331.159 405.948C330.493 407.089 329.622 408.128 328.563 408.93C328.191 409.143 327.807 409.542 327.996 409.993C328.949 411.644 332.536 406.511 332.198 405.534C332.202 405.547 332.207 405.559 332.211 405.57C332.053 404.814 330.896 405.294 331.159 405.948Z" fill="#231F20"/>
<path d="M332.513 409.368C332.007 410.045 331.391 410.638 330.729 411.166C330.194 411.705 328.78 411.885 329.016 412.846C330.008 414.113 333.505 410.269 333.73 409.18C333.711 408.23 332.609 408.654 332.513 409.368Z" fill="#231F20"/>
<path d="M236.442 302.969C241.966 302.72 240.587 298.966 236.111 298.198C234.023 297.372 226.954 298.01 230.317 301.382C232.057 302.69 234.307 303.038 236.442 302.969Z" fill="#3BB753"/>
<path d="M236.571 300.931C237.383 300.934 236.418 298.558 236.013 299.445C236.044 299.786 236.301 300.07 236.279 300.45C236.277 300.433 236.275 300.415 236.274 300.396C236.28 300.618 236.323 300.906 236.571 300.931Z" fill="#231F20"/>
<path d="M235.308 301.038C235.359 300.398 234.997 299.79 234.677 299.308C234.134 298.957 234.076 299.758 234.374 300.088C234.583 300.49 234.435 301.201 234.875 301.387C235.074 301.44 235.272 301.261 235.308 301.038Z" fill="#231F20"/>
<path d="M233.154 301.275C233.167 300.51 232.989 299.427 232.602 298.877C231.655 298.885 232.398 300.537 232.324 301.177C232.306 301.76 233.049 301.907 233.154 301.275Z" fill="#231F20"/>
<path d="M212.295 297.565C215.595 297.158 214.299 293.147 211.585 292.751C209.8 291.912 206.665 292.684 206.248 294.517C206.269 296.929 210.121 297.858 212.295 297.565Z" fill="#3BB753"/>
<path d="M213.284 297.253C213.912 297.195 213.662 296.278 213.569 295.838C213.573 295.86 213.578 295.88 213.583 295.9C213.503 295.378 213.1 293.422 212.592 294.72C212.908 295.376 212.681 297.096 213.284 297.253Z" fill="#231F20"/>
<path d="M211.823 297.007C212.864 297.187 211.945 293.33 211.274 294.151C211.01 294.559 211.31 295.08 211.32 295.52C211.423 296.021 211.193 296.9 211.823 297.007Z" fill="#231F20"/>
<path d="M210.126 295.75C210.961 295.619 210.175 294.576 210.223 294.079C210.223 294.09 210.224 294.102 210.224 294.114C210.311 293.838 209.864 293.619 209.788 293.952C209.852 294.489 209.416 295.511 210.126 295.75Z" fill="#231F20"/>
<path d="M72.3476 138.776C65.1479 136.299 58.4157 131.826 50.605 131.473C42.9393 125.127 71.4129 130.971 73.5565 132.169C77.2412 133.095 76.4669 139.762 72.3476 138.776Z" fill="black"/>
<path d="M108.098 84.1327C108.105 84.1384 108.105 84.1384 108.105 84.1384C113.058 88.5695 115.626 95.0914 120.543 99.6151C124.055 102.914 119.375 108.63 115.784 104.795C111.349 99.5969 109.841 92.5375 105.765 87.1213C104.393 85.5406 106.157 82.8869 108.092 84.1403C108.092 84.1403 108.092 84.1403 108.098 84.1327Z" fill="black"/>
<path d="M176.283 83.3047C176.536 86.2011 173.848 88.3267 172.506 90.6658C168.636 95.9189 166.069 101.986 162.133 107.201C161.234 108.121 160.478 109.245 159.418 109.985C158.14 110.573 157.366 108.775 158.304 107.883C162.477 99.0556 164.501 89.2069 169.804 80.92C171.812 78.1517 176.04 80.3326 176.283 83.3047Z" fill="black"/>
<path d="M229.999 126.285C230.917 127.942 230.839 130.458 229.17 131.634C219.917 135.851 211.047 141.144 202.319 146.066C192.662 143.065 208.901 134.76 211.722 131.603C216.44 129.11 225.658 120.014 229.999 126.285Z" fill="black"/>
<path d="M62.0715 174.269C56.1682 175.067 50.3097 174.817 44.4329 174.054C43.1468 174.457 41.6027 173.151 42.5701 171.816C46.5383 170.312 51.344 171.179 55.3925 169.341C64.3488 164.95 67.1324 172.554 62.0715 174.269Z" fill="black"/>
</svg>
