<svg width="94" height="32" viewBox="0 0 94 32" fill="none" xmlns="http://www.w3.org/2000/svg">
<g clip-path="url(#clip0_20724_103182)">
<path d="M1.77608 0H30.3943C31.3753 0 32.1704 0.791111 32.1704 1.76667V30.2333C32.1704 31.2091 31.3753 32 30.3943 32H1.77608C0.795101 32 0 31.2091 0 30.2333V1.76667C0 0.791111 0.795101 0 1.77608 0Z" fill="#3D5B99"/>
<path d="M22.1968 31.9998V19.6087H26.3789L26.9978 14.7776H22.1968V11.6954C22.1968 10.2976 22.5877 9.3443 24.6029 9.3443H27.1743V5.0243C25.9299 4.89296 24.679 4.82918 23.4277 4.83318C19.7214 4.83318 17.1724 7.0843 17.1724 11.2176V14.7732H12.9902V19.6021H17.1836V31.9998H22.1968Z" fill="white"/>
<path d="M37.3171 0H91.3142C92.2952 0 93.0903 0.791111 93.0903 1.76667V30.2333C93.0903 31.2091 92.2952 32 91.3142 32H37.3171C36.3361 32 35.541 31.2091 35.541 30.2333V1.76667C35.541 0.791111 36.3361 0 37.3171 0V0Z" fill="#EE4142"/>
<path d="M53.2354 20.6531H46.98V9.22417H44.5449V22.7797H53.2309V20.6575L53.2354 20.6531ZM58.2955 22.7753V9.21973H55.8604V22.7753H58.2955ZM68.2081 22.7753L72.9197 9.21973H70.3215L66.9235 19.9442H66.7649L63.3378 9.21973H60.6569L65.4155 22.7753H68.2192H68.2081ZM84.0877 20.6819H77.7117V16.8886H83.7437V14.9175H77.7117V11.3175H84.0944V9.22417H75.2699V22.7797H84.0877V20.6864V20.6819Z" fill="white"/>
</g>
<defs>
<clipPath id="clip0_20724_103182">
<rect width="93.0909" height="32" fill="white"/>
</clipPath>
</defs>
</svg>
