<svg width="1692" height="411" viewBox="0 0 1692 411" fill="none" xmlns="http://www.w3.org/2000/svg">
<path fill-rule="evenodd" clip-rule="evenodd" d="M1277.55 194.536C1407 234.179 1542.06 291.804 1626.39 332.648L1692 197.29C1602.71 154.04 1460.3 93.1928 1321.63 50.7233C1252.39 29.5188 1181.87 12.2045 1118.18 4.44785C1057.29 -2.96712 990.667 -3.30979 937.12 20.7999C909.344 33.3064 883.796 49.9549 865.099 73.2948C845.078 98.2873 836.05 127.129 836.815 156.244C837.397 178.36 843.527 197.889 850.451 213.555C836.194 205.114 819.993 194.384 800.341 181.37C798.374 180.067 796.373 178.742 794.335 177.394C733.08 136.858 649.338 86.368 525.84 106.01C467.359 115.312 422.218 141.335 397.177 186.806C385.238 208.487 380.16 231.641 377.876 250.3C305.434 224.241 238.384 196.812 188.477 173.818C163.375 162.252 143.652 152.285 130.117 144.568C123.266 140.663 119.143 137.979 117.112 136.513C116.979 136.417 116.857 136.328 116.745 136.245C118.493 137.765 122.274 141.447 126.026 147.196L0 229.377C9.79907 244.392 23.2886 254.318 29.0487 258.474C37.0839 264.271 46.2587 269.914 55.5656 275.221C74.3448 285.928 98.3743 297.923 125.489 310.416C179.987 335.525 251.179 364.582 327.051 391.871C352.74 401.111 376.863 407.819 398.966 410.117C420.576 412.364 449.181 411.331 475.607 394.848C503.902 377.199 515.571 350.851 520.501 332.233C524.817 315.933 525.583 299.194 526.001 290.062L526.035 289.309C526.082 288.289 526.127 287.311 526.17 286.371C526.62 276.497 526.879 270.826 527.697 265.278C528.043 262.933 528.4 261.385 528.664 260.438C531.297 258.939 537.321 256.487 549.485 254.552C614.274 244.248 656.674 266.68 711.272 302.811C715.834 305.83 720.62 309.076 725.632 312.475C775.756 346.469 848.446 395.768 944.697 385.972C966.013 383.803 995.836 378.599 1020 359.721C1033.97 348.804 1045.96 333.346 1051.98 313.495C1057.73 294.496 1056.3 277.136 1053.41 264.376C1048.26 241.593 1035.78 222.532 1028.81 212.295C1023.77 204.903 1016.95 195.72 1011.32 188.133C1008.8 184.745 1006.52 181.675 1004.74 179.224C999.479 171.979 995.469 166.065 992.479 161.054C994.315 160.095 996.449 159.052 998.919 157.94C1013.5 151.377 1045.63 147.136 1099.98 153.755C1151.53 160.032 1212.73 174.684 1277.55 194.536ZM526.924 261.797C526.998 261.837 527.437 261.554 528.017 260.828C527.14 261.395 526.85 261.758 526.924 261.797ZM115.745 135.448C115.717 135.447 116.021 135.711 116.745 136.245C116.136 135.716 115.774 135.449 115.745 135.448ZM415.933 260.607C415.928 260.602 415.776 260.592 415.492 260.596C415.795 260.614 415.937 260.612 415.933 260.607ZM938.578 234.89C938.574 234.887 938.462 234.916 938.253 234.984C938.477 234.926 938.581 234.892 938.578 234.89Z" fill="#F5F7FC"/>
</svg>
