<svg width="460" height="482" viewBox="0 0 460 482" fill="none" xmlns="http://www.w3.org/2000/svg">
<path d="M418.004 220.788C423.527 220.788 428.004 216.537 428.004 211.292C428.004 206.047 423.527 201.795 418.004 201.795C412.481 201.795 408.004 206.047 408.004 211.292C408.004 216.537 412.481 220.788 418.004 220.788Z" fill="#266FFE"/>
<path d="M362.004 19.4573C367.527 19.4573 372.004 15.2055 372.004 9.96061C372.004 4.7157 367.527 0.463867 362.004 0.463867C356.481 0.463867 352.004 4.7157 352.004 9.96061C352.004 15.2055 356.481 19.4573 362.004 19.4573Z" fill="#266FFE"/>
<ellipse rx="191.355" ry="74.3783" transform="matrix(-0.932751 -0.360523 -0.357319 0.933982 254.902 335.018)" fill="#266FFE"/>
<ellipse rx="191.355" ry="74.3783" transform="matrix(-0.932751 -0.360523 -0.357319 0.933982 251.804 342.802)" fill="#1A1A1A"/>
<path d="M196.396 181.758C197.416 181.846 198.285 181.362 199.063 180.765C203.118 179.625 206.344 176.451 209.811 174.18C216.644 168.973 223.236 163.452 229.37 157.484C232.099 157.918 234.91 158.476 237.691 158.124C237.689 158.124 237.689 158.121 237.687 158.121C237.916 158.065 238.107 157.853 238.155 157.627C242.955 153.144 247.525 144.368 248.308 137.972C250.041 136.459 244.583 134.974 243.673 133.967C236.356 129.091 229.746 123.312 222.504 118.331C222.56 118.371 222.614 118.414 222.67 118.454C222.319 118.199 221.976 117.935 221.63 117.681C217.492 114.586 213.357 111.487 209.185 108.433C209.24 108.473 209.295 108.516 209.351 108.556C195.071 97.8692 180.938 86.9967 166.707 76.2518C166.709 76.2548 166.714 76.2558 166.716 76.2589C165.74 75.6855 164.601 73.9414 163.373 75.0227C163.154 74.9758 162.914 75.0087 162.724 75.1571C156.711 76.4951 152.306 85.5096 149.207 90.2362C149.231 90.2018 149.255 90.1673 149.28 90.1328C149.123 90.3613 149.018 90.6002 148.975 90.8622C147.039 90.5626 142.24 87.3 142.608 91.2327C139.851 94.6461 138.262 98.7242 136.388 102.613C134.252 107.198 134.275 111.747 139.935 113.239C139.707 113.553 139.768 114.017 140.064 114.266C136.438 120.813 132.221 128.217 133.668 135.785C133.093 138.878 139.972 138.264 142.073 139.065C147.086 139.863 152.109 140.604 157.109 141.463C170.903 143.785 184.596 146.66 198.16 149.943C198.101 149.929 198.045 149.915 197.986 149.9C201.678 150.839 205.373 151.778 209.091 152.628C204.332 158.062 199.27 163.243 194.271 168.471C192.657 170.108 190.209 171.833 190.383 174.315C190.96 177.328 192.995 181.225 196.396 181.758ZM225.17 156.692C225.05 156.8 224.928 156.904 224.808 157.011C224.791 156.981 224.77 156.956 224.749 156.928C224.828 156.836 224.906 156.744 224.984 156.655C225.043 156.667 225.108 156.68 225.17 156.692ZM163.962 139.537C156.85 138.238 149.69 137.168 142.543 136.051C147.873 131.875 151.762 126.302 155.442 120.776C155.398 120.837 155.353 120.902 155.308 120.964C155.459 120.747 155.61 120.531 155.762 120.315C155.717 120.377 155.672 120.441 155.63 120.504C159.309 115.087 162.723 109.37 164.927 103.254C164.924 103.266 164.919 103.278 164.916 103.291C165.007 103.031 165.097 102.773 165.185 102.515C165.185 102.515 165.185 102.515 165.185 102.517C165.191 102.503 165.194 102.49 165.2 102.476C165.198 102.483 165.194 102.49 165.192 102.498C165.194 102.49 165.196 102.48 165.201 102.471C165.201 102.471 165.201 102.473 165.2 102.476C167.564 95.8553 170.547 88.8686 169.306 81.8026C183.287 92.4261 196.954 103.428 211.13 113.812C211.074 113.772 211.019 113.729 210.964 113.689C213.813 115.805 216.635 117.956 219.491 120.066C219.436 120.023 219.381 119.983 219.325 119.943C219.413 120.008 219.498 120.07 219.585 120.135C219.531 120.092 219.475 120.052 219.42 120.012C219.548 120.109 219.68 120.204 219.809 120.301C219.753 120.261 219.698 120.218 219.64 120.178C220.026 120.468 220.412 120.759 220.803 121.038C220.803 121.038 220.801 121.035 220.799 121.035C221.476 121.534 222.155 122.027 222.84 122.515C218.466 130.479 213.152 138.085 207.675 145.421C207.675 145.419 207.675 145.419 207.678 145.417C207.678 145.419 207.678 145.419 207.675 145.421C207.671 145.423 207.671 145.426 207.67 145.428C207.671 145.426 207.673 145.426 207.674 145.424C207.642 145.47 207.609 145.516 207.577 145.559C207.578 145.557 207.581 145.555 207.581 145.555C207.576 145.564 207.569 145.571 207.564 145.58C206.947 146.499 206.273 147.385 205.612 148.273C205.612 148.276 205.608 148.278 205.608 148.278C205.518 148.407 205.434 148.537 205.37 148.679C204.11 148.382 202.849 148.074 201.592 147.765C201.627 147.775 201.663 147.782 201.702 147.792C189.235 144.634 176.612 142.007 163.962 139.537ZM144.354 115.731C146.955 117.03 149.65 118.156 152.171 119.599C148.293 125.117 144.593 131.819 138.103 134.719C136.35 128.701 139.227 122.497 141.95 117.084C141.948 117.089 141.945 117.091 141.944 117.096C142.273 116.379 142.808 115.713 142.914 114.922C143.385 115.204 143.862 115.476 144.354 115.731ZM162.711 99.9434C160.487 106.371 157.014 112.373 153.216 118.07C149.43 114.973 144.974 112.779 140.886 110.091C144.382 105.526 148.265 99.3941 147.903 93.6074C152.791 95.2769 157.856 96.2778 162.864 97.5431C162.92 97.7988 163.15 98.0715 163.441 98.0516C163.193 98.6795 162.948 99.3079 162.711 99.9434ZM142.143 102.164C141.026 104.287 139.604 106.444 137.908 108.13C138.23 103.819 142.453 96.3786 145.295 92.9141C146.319 95.7073 143.845 98.466 142.751 100.965C142.785 100.898 142.82 100.831 142.853 100.762C142.757 100.95 142.662 101.136 142.566 101.324C142.6 101.258 142.635 101.191 142.67 101.122C142.497 101.468 142.318 101.815 142.143 102.164ZM163.51 77.2951C169.455 81.9274 166.255 90.1554 164.189 96.1293C160.356 94.0817 155.994 93.3596 151.937 91.8346C154.771 87.6036 158.45 79.0309 163.14 76.8339C163.234 77.0105 163.357 77.1667 163.51 77.2951Z" fill="#266FFE"/>
<path d="M373.604 273.284C372.474 263.45 342.159 242.818 327.143 233.732L321.804 229.937L284.676 255.676L268.198 213.528L231.324 213.881C217.803 214.011 198.828 237.268 191.031 248.881L146.766 296.995C145.742 297.005 143.546 296.41 142.956 293.955C142.366 291.499 154.71 270.766 160.955 260.707L192.906 215.019C190.383 211.197 183.182 204.189 174.553 206.733C163.767 209.913 112.396 277.325 108.317 301.209C104.238 325.093 113.418 328.851 119.51 334.177C125.601 339.503 141.742 338.579 146.351 338.535C150.038 338.5 162.847 327.609 168.79 322.167L202.961 284.919L179.852 368.213L160.57 376.089L161.3 379.928L166.677 379.877L162.798 383.76L175.781 391.328C183.96 392.788 198.203 392.036 201.884 392.616C206.486 393.341 235.578 403.062 260.821 413.589C286.065 424.115 334.416 428.267 343.688 422.794C351.106 418.416 358.323 393.168 361.004 381.092C364.992 366.439 374.092 332.046 378.597 311.696C384.228 286.259 375.017 285.578 373.604 273.284Z" fill="white"/>
<path d="M289.744 399.499C299.829 401.584 310.025 403.064 320.376 403.37C325.48 404.061 330.617 403.866 335.681 402.758C345.384 401.236 349.843 391.41 352.952 383.44C352.948 383.455 352.942 383.47 352.939 383.482C353.001 383.311 353.06 383.14 353.123 382.966C353.1 383.027 353.078 383.088 353.055 383.149C359.098 365.963 364.442 348.582 369.912 331.23C377.612 305.777 387.414 276.57 374.538 251.609C368.792 242.089 358.961 235.778 349.77 229.647C340.212 223.229 330.227 217.425 320.856 210.751C322.916 206.456 324.253 201.88 326.063 197.487C326.057 197.504 326.053 197.521 326.046 197.538C326.745 195.613 327.459 193.673 328.41 191.846C328.442 191.837 328.472 191.825 328.503 191.81C334.58 195.478 340.008 188.408 341.996 183.389C351.428 186.367 357.847 176.353 353.919 168.612C357.964 165.507 362.964 163.083 365.405 158.461C368.304 153.582 366.564 147.477 360.398 146.701C363.311 139.953 360.742 131.543 353.61 128.707C355.401 116.954 347.93 104.741 334.577 105.86C332.519 98.1906 324.269 88.206 315.467 94.3633C315.019 84.3521 296.903 78.8016 294.526 90.7588C288.091 84.7863 276.486 87.7595 279.846 97.7251C274.875 97.6844 273.637 104.163 275.358 107.687C277.129 112.55 281.826 115.701 286.964 116.612C286.196 117.581 285.572 118.635 284.886 119.658C284.886 119.658 284.887 119.656 284.89 119.654C281.453 124.513 278.949 129.904 276.022 135.044C274.277 138.027 272.257 140.851 270.426 143.788C269.323 145.182 268.036 147.128 269.757 148.535C278.806 154.855 289.437 159.08 299.758 163.201C294.236 170.863 284.176 167.971 277.193 164.345C277.2 164.349 277.207 164.353 277.217 164.357C277.183 164.34 277.147 164.322 277.112 164.307C277.1 164.302 277.088 164.297 277.076 164.292C277.081 164.293 277.088 164.297 277.093 164.298C274.716 163.589 266.477 157.619 264.914 158.937C256.336 167.182 266.397 173.959 274.339 176.554C272.745 182.41 269.613 187.763 267.732 193.535C257.213 195.235 246.322 192.948 235.778 195.121C217.488 197.463 202.009 216.427 189.865 228.808L189.868 228.806C184.851 234.407 179.802 239.983 174.735 245.546C174.738 245.544 174.739 245.541 174.742 245.539C174.626 245.665 174.511 245.789 174.392 245.914C174.438 245.866 174.485 245.818 174.529 245.766C174.299 246.011 174.069 246.255 173.843 246.503C173.889 246.455 173.933 246.406 173.98 246.355C166.3 255.058 158.101 263.296 150.079 271.698C150.09 271.687 150.101 271.674 150.111 271.665C150.082 271.699 150.053 271.73 150.021 271.763C150.024 271.761 150.025 271.758 150.028 271.756C148.475 273.319 146.785 275.327 144.414 275.495C143.626 271.83 146.809 268.606 148.048 265.285C148.048 265.285 148.047 265.29 148.044 265.292C148.173 265.043 148.302 264.793 148.431 264.544C148.431 264.544 148.43 264.549 148.426 264.551C148.857 263.72 149.28 262.888 149.707 262.059C149.696 262.086 149.682 262.109 149.668 262.133C158.106 247.067 168.052 232.771 178.115 218.666C182.966 212.312 187.502 205.709 192.636 199.565C196.238 196.384 199.568 192.914 203.28 189.86C203.26 189.877 203.237 189.893 203.217 189.91C203.253 189.883 203.287 189.853 203.32 189.826C203.314 189.83 203.307 189.837 203.3 189.843C203.323 189.827 203.344 189.807 203.367 189.788C208.819 184.86 214.015 177.79 213.503 170.349C213.505 170.386 213.507 170.423 213.511 170.463C213.508 170.418 213.506 170.37 213.503 170.325C213.502 170.33 213.503 170.336 213.502 170.341C213.799 166.598 210.246 160.047 207.619 166.431C206.899 169.346 206.83 172.387 205.76 175.241C205.564 175.66 205.667 176.211 206.094 176.447C208.545 176.854 208.21 167.77 209.623 166.17C212.01 164.206 211.441 175.591 210.008 176.567C208.261 179.502 206.736 182.605 204.295 185.085C199.819 189.149 195.07 192.948 190.64 197.079C180.177 209.506 170.693 222.747 161.861 236.291L161.862 236.288C161.858 236.293 161.857 236.298 161.853 236.302C161.719 236.493 161.585 236.683 161.454 236.872C161.454 236.872 161.458 236.865 161.46 236.86C156.853 243.478 152.621 250.363 148.699 257.374C148.734 257.307 148.768 257.241 148.803 257.174C148.733 257.312 148.659 257.452 148.588 257.592C148.595 257.575 148.604 257.559 148.613 257.542C147.158 261.142 136.431 279.597 146.274 277.529C150.099 276.215 152.375 272.648 155.227 270.049C162.396 263.255 169.109 256.032 175.723 248.738C175.72 248.74 175.716 248.747 175.716 248.747C175.736 248.727 175.755 248.705 175.773 248.685C175.77 248.687 175.769 248.692 175.769 248.692C175.802 248.654 175.835 248.619 175.87 248.581C175.859 248.595 175.848 248.608 175.835 248.619C181.557 242.428 187.132 236.109 192.8 229.874L192.8 229.876C194.784 227.778 196.818 225.719 198.757 223.584C198.76 223.579 198.764 223.575 198.767 223.573L198.767 223.575C198.774 223.569 198.778 223.562 198.785 223.555L198.788 223.553C198.795 223.549 198.799 223.542 198.803 223.538C198.799 223.54 198.799 223.542 198.796 223.544C198.799 223.542 198.8 223.537 198.803 223.535C206.003 215.887 213.641 208.425 222.811 203.005C222.805 203.009 222.796 203.013 222.789 203.019C222.798 203.013 222.808 203.007 222.817 203.001C222.814 203.003 222.814 203.003 222.811 203.005C223.101 202.838 223.387 202.668 223.677 202.501C223.674 202.503 223.668 202.507 223.665 202.509C223.689 202.496 223.711 202.482 223.737 202.466C223.703 202.485 223.668 202.505 223.637 202.525C232.532 196.496 243.696 197.693 253.891 196.963C254.304 202.983 255.158 208.951 255.854 214.94C256.51 218.062 256.072 221.661 257.506 224.516C258.674 225.573 259.961 224.013 261.004 223.458C263.666 221.655 266.406 219.991 269.162 218.335C270.31 217.44 274.482 215.766 270.911 215.186C270.51 214.895 270.054 215.377 270.209 215.783C266.345 217.225 262.593 218.949 259.213 221.305C258.419 213.146 257.235 205.029 256.646 196.849C259.349 196.85 262.065 196.697 264.72 196.111C264.701 196.115 264.681 196.119 264.664 196.124C265.311 195.985 265.963 195.841 266.589 195.635C269.725 205.854 274.381 215.644 277.824 225.796C277.823 225.791 277.822 225.783 277.818 225.777C277.833 225.825 277.85 225.87 277.863 225.917C277.862 225.912 277.858 225.903 277.857 225.898C277.882 225.973 277.907 226.049 277.932 226.128C277.927 226.114 277.922 226.1 277.918 226.086C279.078 229.244 279.532 232.913 281.778 235.541C275.033 248.956 270.355 263.154 265.558 277.268C265.562 277.25 265.569 277.233 265.576 277.214C260.849 290.064 255.309 302.669 251.549 315.817C248.376 328.358 243.649 340.479 240.649 353.058C232.858 351.424 225.01 350.161 217.083 349.245C212.332 349.047 207.538 347.327 202.805 348.029C202.513 347.928 202.308 348.223 202.096 348.379C202.103 348.373 202.109 348.369 202.116 348.362C202.068 348.394 202.024 348.443 201.966 348.452C201.812 348.429 201.672 348.485 201.578 348.586C194.495 347.282 187.701 343.788 180.251 344.948C187.358 326.44 192.237 307.29 197.158 288.19C198.952 282.044 201.13 276.01 203.255 269.96C203.65 267.722 206.463 264.869 204.456 262.919C202.545 261.617 201.397 264.403 200.201 265.448C198.098 267.732 195.868 269.898 193.667 272.093C180.963 285.431 169.434 300.081 154.193 310.88C150.782 313.193 147.018 315.494 142.937 316.36C134.471 317.12 126.211 314.161 118.694 310.852C114.791 308.754 111.449 305.715 110.308 301.399C108.367 296.616 107.455 291.399 108.549 286.255C111.537 270.121 120.335 255.923 130.221 242.763C130.216 242.772 130.209 242.779 130.204 242.788C130.272 242.695 130.335 242.6 130.403 242.506C130.398 242.513 130.391 242.522 130.386 242.529C134.105 236.783 138.232 231.306 142.238 225.747C142.197 225.806 142.156 225.864 142.115 225.924C148.242 217.489 154.664 209.122 162.345 201.928C167.405 197.057 173.123 192.911 178.685 188.629C180.93 186.088 183.207 183.591 185.574 181.154C185.53 181.202 185.484 181.248 185.44 181.297C192.523 173.318 188.482 175.821 188.778 169.188C190.042 169.261 190.831 170.881 192.099 170.503C193.916 169.137 190.985 165.57 192.645 163.861C194.142 164.221 195.32 165.999 196.915 165.676C199.05 164.026 195.511 160.394 196.759 158.063C196.742 158.099 196.722 158.137 196.703 158.173C196.833 157.884 197.048 157.603 197.377 157.522C197.34 157.531 197.303 157.539 197.267 157.545C197.447 157.5 197.631 157.477 197.817 157.478C197.779 157.478 197.743 157.481 197.705 157.484C197.809 157.487 197.913 157.492 198.017 157.497C197.981 157.492 197.947 157.488 197.91 157.483C199.033 157.606 200.057 158.162 200.922 158.83C200.259 159.388 201.645 160.216 202.031 160.627C203.972 161.608 202.603 158.645 201.877 158.155C197.262 153.296 193.605 156.675 194.992 162.421C190.856 159.754 189.74 164.191 190.355 167.407C185.816 165.282 186.2 171.963 187.326 174.43C184.799 178.876 180.295 181.845 177.244 185.94C170.88 191.039 164.194 195.835 158.41 201.599C145.006 214.999 134.873 231.017 123.85 246.197C123.894 246.135 123.936 246.073 123.98 246.011C120.076 251.586 116.309 257.275 113.152 263.273L113.151 263.278L113.151 263.276L113.15 263.283L113.149 263.286C113.08 263.418 113.011 263.551 112.945 263.682C112.949 263.678 112.95 263.673 112.951 263.668C108.487 273.309 103.857 285.018 105.371 295.593C106.838 302.336 109.197 309.487 115.732 313.059C122.541 316.909 130.525 319.542 138.466 320.157C148.311 321.194 156.22 313.829 163.561 308.399C163.544 308.411 163.527 308.426 163.511 308.438C176.791 297.465 187.294 283.814 199.394 271.71C193.409 287.749 190.236 304.502 185.124 320.775C183.15 326.869 181.23 332.976 179.156 339.039C178.735 340.999 176.725 343.401 178.044 345.254C171.737 346.556 164.773 348.352 160.17 353.043C156.359 357.858 161.063 359.281 165.237 357.05C159.798 359.143 160.091 364.689 166.516 362.76C162.5 367.607 170.028 366.785 172.977 366.165C169.625 370.701 178.429 368.881 180.704 369.42C186.772 369.971 192.931 370.055 198.766 371.868C202.138 376.562 220.431 378.834 226.75 380.988L226.752 380.989C228.598 381.503 230.438 382.03 232.284 382.54C232.221 382.522 232.161 382.505 232.097 382.487C240.101 384.646 247.884 387.411 255.787 389.839C259.594 390.8 263.469 391.6 267.044 393.215C274.181 396.476 282.218 397.255 289.744 399.499ZM319.385 400.888C303 400.049 287.052 396.279 271.385 392.061C264.733 388.801 257.31 387.703 250.406 385.09C235.037 379.253 218.504 376.834 203.016 371.443C203.546 367.018 204.171 362.608 204.407 358.161L204.406 358.164C204.578 355.82 204.858 353.467 204.663 351.122C228.452 353.349 251.583 359.062 275.047 363.03L275.037 363.028C279.467 363.512 283.931 363.734 288.354 364.282C294.96 364.919 304.022 368.632 308.004 361.093C313.121 352.182 316.441 342.469 319.226 332.708C322.783 319.55 327.118 306.61 331.343 293.632C332.782 289.832 334.538 286.112 335.38 282.139C335.703 280.827 333.681 279.847 333.091 281.309C332.878 281.892 332.669 282.479 332.459 283.064C332.388 283.259 332.318 283.455 332.248 283.65C332.255 283.631 332.262 283.611 332.27 283.589C326.563 297.621 320.948 311.768 317.175 326.401C314.679 334.586 312.707 342.951 309.087 350.786C307.341 354.416 306.375 358.787 303.241 361.575C303.26 361.563 303.282 361.552 303.3 361.542C303.263 361.563 303.228 361.585 303.19 361.606C303.213 361.593 303.235 361.579 303.26 361.565C298.153 364.054 292.296 360.824 286.907 360.748C271.736 359.874 257.055 356.372 242.267 353.369C243.977 345.704 246.233 338.173 248.72 330.699C251.531 321.465 253.728 312.067 257.172 303.007C257.162 303.039 257.149 303.07 257.136 303.104C261.498 291.378 266.592 279.91 270.659 268.083C270.649 268.112 270.637 268.139 270.628 268.166C270.739 267.855 270.851 267.542 270.962 267.232C270.946 267.276 270.93 267.32 270.915 267.364C274.586 256.838 279.143 246.573 282.558 235.977C284.573 236.104 286.23 234.294 287.946 233.438C290.819 231.698 293.516 229.7 296.332 227.876C304.032 222.854 311.745 217.903 318.941 212.213C319.276 212.359 319.694 212.284 319.967 212.038C321.493 213.817 323.302 215.361 325.034 216.951C320.057 223.353 315.099 229.792 310.628 236.537C309.549 234.84 306.748 223.98 304.347 225.684C303.694 226.132 303.623 227.004 303.95 227.641C305.387 230.554 306.554 233.581 307.701 236.614C308.422 237.995 308.412 240.064 309.92 240.878C312.148 241.258 313.027 237.759 314.304 236.428C318.393 230.312 322.615 224.271 325.941 217.725C337.706 226.855 351.244 233.766 362.649 243.348C362.64 243.341 362.63 243.334 362.622 243.324C362.636 243.335 362.649 243.348 362.662 243.359L362.66 243.358C362.664 243.362 362.668 243.368 362.675 243.372C362.671 243.368 362.666 243.365 362.662 243.361C362.684 243.381 362.709 243.402 362.731 243.422L362.726 243.419C380.369 257.032 379.037 281.924 375.125 301.687C375.135 301.644 375.145 301.601 375.155 301.559C375.118 301.73 375.079 301.903 375.042 302.074L375.043 302.069C375.035 302.104 375.026 302.141 375.02 302.177C375.022 302.169 375.023 302.164 375.025 302.157C370.488 321.827 363.79 341.024 357.91 360.37C353.216 371.528 349.811 395.332 337.438 399.998C337.483 399.979 337.53 399.962 337.578 399.943C336.764 400.226 335.934 400.428 335.091 400.604C335.139 400.593 335.188 400.581 335.239 400.571C331.492 401.263 327.679 401.942 323.889 401.401C323.873 401.397 323.857 401.397 323.842 401.394L323.847 401.395C323.537 401.361 323.227 401.324 322.917 401.288C322.922 401.289 322.93 401.29 322.935 401.291C322.925 401.289 322.914 401.29 322.901 401.287L322.904 401.288C322.896 401.286 322.888 401.287 322.88 401.286C322.888 401.287 322.895 401.289 322.904 401.288C321.734 401.143 320.565 401.001 319.385 400.888ZM194.702 367.726C188.442 366.685 181.943 366.589 175.593 367.017C177.183 366.282 178.85 365.735 180.512 365.29C181.276 364.76 181.049 363.445 180.126 363.251C175.984 363.275 171.924 364.431 167.771 364.499C170.684 362.182 175.007 361.46 178.678 361.132C179.76 360.822 179.643 359.041 178.559 358.856C176.262 358.847 173.923 358.87 171.654 359.315C168.872 359.568 166.072 361.553 163.337 360.979C166.743 357.737 171.772 356.581 176.251 355.449C178.665 354.857 177.594 352.44 175.38 353.054C172.463 353.353 169.542 353.725 166.669 354.318C164.762 354.672 163.069 355.948 161.087 355.885C166.012 349.916 175.194 348.714 182.563 347.947C189.062 347.63 195.177 350.708 201.678 350.072C201.663 350.342 201.649 350.609 201.628 350.878C201.636 350.798 201.642 350.718 201.65 350.638C201.171 356.688 200.81 362.809 199.332 368.733C197.814 368.295 196.255 368.008 194.702 367.726ZM318.249 210.88C306.108 217.536 294.701 225.395 283.109 232.931C278.213 220.906 273.936 208.581 269.412 196.421C271.657 189.43 275.719 182.98 277.284 175.802C276.928 171.809 258.119 170.663 265.901 160.909C269.782 162.966 273.519 165.29 277.559 167.062C277.559 167.062 277.551 167.058 277.546 167.057C277.889 167.215 278.234 167.369 278.577 167.525C278.577 167.525 278.572 167.524 278.567 167.523C278.577 167.525 278.584 167.532 278.594 167.534L278.591 167.533C287.397 171.738 297.647 172.508 302.745 162.683C302.4 160.245 296.783 159.544 294.755 158.268C292.284 157.178 289.779 156.165 287.307 155.08C287.363 155.105 287.416 155.131 287.472 155.156C282.01 152.265 275.732 150.476 270.831 146.752C270.97 146.502 271.136 146.268 271.299 146.033C276.419 138.887 280.353 131.092 284.574 123.455C284.563 126.293 288.566 126.308 290.517 127.487C293.145 128.05 294.488 130.637 297.025 131.263C296.793 131.917 297.619 131.892 297.67 131.286C304.225 128.629 289.113 119.275 285.879 121.293C286.332 120.575 286.72 119.819 287.098 119.064C287.475 118.315 287.874 117.572 288.211 116.806C292.536 116.622 296.634 114.016 300.246 111.812C300.484 118.917 307.828 122.718 314.367 119.669C313.617 127.644 322.359 132.337 329.733 130.393C328.72 134.746 331.855 139.325 336.668 139.089C335.115 142.048 337.034 145.504 340.504 145.535C336.513 151.949 332.035 158.124 327.516 164.209C325.888 166.838 323.177 169.158 322.706 172.275C324.234 177.16 331.172 169.283 332.841 167.442L332.838 167.446C332.848 167.435 332.856 167.424 332.867 167.413C332.863 167.42 332.855 167.429 332.848 167.438C334.102 165.769 336.373 167.923 337.629 168.709C340.771 171.611 333.293 175.495 330.89 176.545C327.806 179.223 324.736 186.409 326.822 190.116C323.522 196.752 321.171 203.75 318.333 210.571L318.335 210.572C318.297 210.664 318.267 210.768 318.249 210.88Z" fill="#1A1A1A"/>
<path d="M292.084 152.814C293.364 153.154 295.405 152.414 294.085 150.995C287.973 148.951 284.443 145.172 293.724 144.799C296.938 144.508 297.958 140.986 299 138.536C298.99 138.555 298.981 138.571 298.971 138.59C298.996 138.543 299.02 138.495 299.045 138.448C299.044 138.45 299.04 138.455 299.04 138.457C299.279 137.705 300.603 136.511 299.628 135.902C300.23 132.832 296.181 140.301 295.77 140.754C295.202 141.809 294.591 142.837 293.199 142.654C293.21 142.654 293.22 142.653 293.231 142.653C284.372 142.834 284.617 150.587 292.084 152.814Z" fill="#1A1A1A"/>
<path d="M310.432 162.053C310.576 162.035 310.667 161.912 310.687 161.782C310.166 159.532 309.118 157.386 307.761 155.502C306.822 155.023 307.346 156.243 307.697 156.574L307.695 156.571C308.099 157.179 308.487 157.798 308.811 158.451C308.803 158.436 308.796 158.421 308.788 158.407C308.792 158.415 308.798 158.424 308.801 158.433C308.801 158.433 308.801 158.433 308.799 158.43C308.861 158.555 308.92 158.682 308.982 158.808C308.981 158.805 308.981 158.802 308.979 158.799C308.986 158.814 308.994 158.828 309.001 158.843C308.999 158.84 308.998 158.834 308.996 158.831C309.352 159.598 309.656 160.388 309.92 161.191C309.915 161.177 309.911 161.161 309.906 161.147C309.928 161.214 309.948 161.278 309.97 161.346C309.97 161.346 309.97 161.346 309.971 161.343C310.088 161.587 310.046 162.074 310.432 162.053Z" fill="#1A1A1A"/>
<path d="M306.005 159.72C307.236 159.566 303.653 153.543 303.244 152.658C301.262 151.62 303.875 155.394 304.031 155.945C304.027 155.939 304.026 155.933 304.022 155.927C304.031 155.945 304.04 155.965 304.049 155.983C304.047 155.979 304.045 155.976 304.043 155.973C304.772 156.968 304.981 159.225 306.005 159.72Z" fill="#1A1A1A"/>
<path d="M314.251 164.338C315.454 164.419 312.889 156.854 311.926 157.795C311.558 158.776 313.07 160.072 313.24 161.167C313.538 162.073 314.013 163.017 314.016 163.974C313.995 164.124 314.085 164.312 314.251 164.338Z" fill="#1A1A1A"/>
<path d="M283.984 147.859C283.964 146.986 282.45 141.227 281.426 141.69C280.897 142.565 282.838 145.022 282.96 146.264C282.958 146.261 282.959 146.258 282.957 146.255C283.261 146.655 283.189 148.882 283.984 147.859Z" fill="#1A1A1A"/>
<path d="M280.472 146.922C281.855 146.772 280.014 144.589 279.96 143.821C279.478 143.146 279.498 141.369 278.457 141.449C278.166 141.587 278.114 141.958 278.251 142.212C279.255 143.623 279.38 145.687 280.472 146.922Z" fill="#1A1A1A"/>
<path d="M319.613 154.734C321.434 153.378 320.584 150.908 319.967 149.18C318.55 145.781 314.752 144.392 311.174 144.287C308.428 143.933 304.613 145.988 305.214 149.029C306.558 150.586 309.052 151.136 310.925 152.043C313.299 153.014 315.582 154.126 318.248 154.106C318.299 154.731 319.072 155.086 319.613 154.734ZM318.767 153.18C314.537 152.131 310.853 149.852 306.843 148.257C309.71 143.439 320.821 147.588 318.894 153.148C318.852 153.153 318.809 153.165 318.767 153.18Z" fill="#1A1A1A"/>
<path d="M318.834 154.843C319.753 155.022 320.11 153.792 319.245 153.483C315.671 152.483 312.073 150.629 308.817 148.784C304.837 149.413 314.383 153.574 315.436 153.836C315.436 153.836 315.436 153.836 315.433 153.836C316.497 154.373 317.613 154.812 318.834 154.843Z" fill="#1A1A1A"/>
<path d="M322.138 149.822C322.346 149.676 322.258 149.425 322.14 149.261C322.141 149.266 322.146 149.27 322.147 149.276C320.639 144.431 314.841 141.214 309.736 142.713C309.22 142.783 308.966 143.427 309.436 143.713C310.256 143.724 311.122 143.225 312.004 143.282C311.982 143.283 311.963 143.284 311.941 143.285C313.492 143.2 315.027 143.599 316.434 144.181C316.417 144.172 316.4 144.166 316.383 144.158C318.834 145.171 320.622 147.09 321.61 149.471C321.698 149.663 321.873 149.99 322.138 149.822Z" fill="#1A1A1A"/>
<path d="M290.032 140.566C292.23 140.471 292.124 137.692 292.075 136.145C291.951 133.662 289.873 131.555 287.721 130.441C284.728 129.075 278.871 130.103 279.573 134.26C280.492 136.078 283.025 136.516 284.556 137.795C286.34 138.737 288.009 140.212 290.032 140.566ZM289.758 138.752C289.546 138.733 289.36 138.822 289.218 138.964C286.751 137.084 284.263 135.238 281.476 133.819C281.493 133.83 281.509 133.841 281.526 133.85C281.491 133.827 281.456 133.804 281.423 133.782C281.43 133.786 281.435 133.79 281.442 133.794C281.367 133.744 281.292 133.695 281.218 133.643C282.235 131.062 286.627 131.617 288.349 133.152C289.814 134.251 290.747 135.784 290.433 137.644C290.349 138.059 290.407 138.926 289.758 138.752Z" fill="#1A1A1A"/>
<path d="M286.378 136.264C288.565 135.848 288.904 132.643 286.982 131.742C286.092 130.055 283.605 130.508 282.941 132.188C282.001 134.287 284.016 136.886 286.378 136.264Z" fill="#1A1A1A"/>
<path d="M312.735 150.169C315.275 149.087 314.476 144.915 311.652 145.154C307.454 145.604 308.766 151.607 312.735 150.169Z" fill="#1A1A1A"/>
<path d="M329.806 150.238C330.57 150.499 331.577 150.404 331.987 149.62C332.894 147.111 329.995 145.139 328.471 143.52C325.102 140.485 321.069 138.235 316.857 136.471C309.238 133.496 300.263 135.521 313.073 140.144C313.039 140.13 313.002 140.112 312.968 140.097C318.694 142.766 323.553 146.914 329.046 149.964C329.084 150.308 329.544 150.523 329.806 150.238Z" fill="#1A1A1A"/>
<path d="M307.932 137.57C308.745 137.6 309.233 136.679 309.015 135.987C312.505 136.025 316.065 137.424 319.102 138.98C317.835 140.387 323.438 139.838 316.929 136.649C316.946 136.658 316.96 136.664 316.975 136.669C314.016 135.398 310.29 132.553 307.005 134.349C305.977 135.329 306.503 137.348 307.932 137.57Z" fill="#1A1A1A"/>
<path d="M317.746 185.562C317.787 185.463 317.824 185.364 317.858 185.264C317.85 185.285 317.843 185.307 317.835 185.329C318.044 184.743 318.227 184.146 318.431 183.558C318.426 183.58 318.419 183.6 318.411 183.622C318.622 182.926 319.037 182.282 319.207 181.58C319.208 181.588 319.208 181.599 319.209 181.607C319.22 181.536 319.21 181.466 319.197 181.396C319.196 181.401 319.198 181.404 319.196 181.409C318.478 180.181 318.054 182.39 317.74 182.898C317.573 183.78 316.434 185.029 317.125 185.793C317.354 185.921 317.646 185.803 317.746 185.562Z" fill="#1A1A1A"/>
<path d="M315.476 185.921C315.782 184.738 317.417 182.22 316.61 181.265C316.172 181.123 316.047 181.622 316.007 181.94C316.009 181.935 316.01 181.93 316.01 181.928C315.875 182.54 315.701 183.138 315.495 183.733L315.496 183.73C315.315 184.194 314.083 186.902 315.476 185.921Z" fill="#1A1A1A"/>
<path d="M285.319 181.655C286.155 181.596 288.212 180.887 287.131 179.896C286.443 179.754 285.901 180.617 285.123 180.604C284.56 180.769 284.731 181.726 285.319 181.655Z" fill="#1A1A1A"/>
<path d="M284.124 180.029C284.539 179.588 285.321 179.468 285.579 178.969C285.483 177.842 284.199 179.01 283.701 179.279C283.278 179.551 283.652 180.322 284.124 180.029Z" fill="#1A1A1A"/>
<path d="M396.526 270.178C399.256 271.589 395.768 256.176 394.814 257.733L394.812 257.733C395.291 260.373 395.693 263.03 395.697 265.728C395.698 265.692 395.696 265.652 395.697 265.616C396.038 267.041 394.687 269.556 396.526 270.178Z" fill="#1A1A1A"/>
<path d="M408.803 269.871C411.562 270.203 408.53 260.695 408.354 259.049C408.105 258.487 407.464 255.212 406.805 255.703C406.802 255.851 406.749 256.157 406.96 256.181C407.72 259.373 407.689 262.687 407.774 265.955C407.774 265.942 407.774 265.932 407.774 265.919C407.774 265.966 407.774 266.01 407.776 266.058C407.778 266.053 407.776 266.047 407.777 266.042C407.982 267.284 407.129 269.427 408.803 269.871Z" fill="#1A1A1A"/>
<path d="M386.143 239.755C388.155 239.453 381.29 230.438 380.39 232.374C379.69 233.738 381.88 234.418 382.544 235.349C383.619 236.444 384.704 237.599 385.392 238.97C385.254 239.394 385.688 239.873 386.143 239.755Z" fill="#1A1A1A"/>
<path d="M391.353 231.192C393.747 231.157 390.865 224.747 389.097 226.089C388.105 227.516 390.877 228.316 390.566 229.897C390.567 229.858 390.566 229.818 390.564 229.779C390.513 230.363 390.66 231.075 391.353 231.192Z" fill="#1A1A1A"/>
<path d="M392.024 131.736C393.178 131.177 400.6 131.023 399.554 129.498C399.09 128.54 394.808 129.793 393.453 129.558C392.502 129.669 390.598 129.391 390.833 130.837C390.941 131.347 391.458 131.811 392.024 131.736Z" fill="#1A1A1A"/>
<path d="M377.186 106.514C378.562 105.321 379.864 103.856 381.608 103.198C381.851 106.882 384.817 99.0715 377.683 104.45C377.703 104.433 377.726 104.417 377.744 104.399C377.717 104.423 377.69 104.443 377.661 104.464C377.668 104.457 377.677 104.451 377.684 104.445C377.664 104.462 377.641 104.478 377.621 104.495L377.624 104.493C377.578 104.528 377.534 104.567 377.488 104.602C377.492 104.598 377.498 104.594 377.502 104.589C377.482 104.606 377.459 104.623 377.439 104.639C377.445 104.633 377.452 104.626 377.461 104.623C377.441 104.64 377.421 104.654 377.401 104.671C377.411 104.665 377.418 104.659 377.427 104.653C377.368 104.699 377.311 104.745 377.251 104.791C377.272 104.774 377.294 104.757 377.315 104.74C376.973 105.01 376.642 105.29 376.311 105.57C375.773 106.065 376.606 107.024 377.186 106.514Z" fill="#1A1A1A"/>
<path d="M315.719 74.2778C317.371 72.2267 316.405 69.0478 317.046 66.6004C317.223 65.3332 315.047 64.7522 314.927 66.2322C314.6 68.4692 314.711 70.743 314.174 72.953C313.981 73.7651 314.892 74.6426 315.719 74.2778Z" fill="#1A1A1A"/>
<path d="M266.995 85.3915C268.847 84.1059 265.613 81.4817 264.702 80.3832C262.801 79.3997 262.696 81.7033 264.182 82.4741C265.442 83.1468 265.496 85.5349 266.995 85.3915Z" fill="#1A1A1A"/>
<path d="M150.409 71.218C153.45 71.5952 151.115 58.038 149.805 56.5567C147.587 52.6262 145.731 57.8151 144.25 53.9119C143.049 50.0232 143.049 49.8079 140.694 50.8845C141.928 53.6559 142.978 59.5382 147.389 57.3105C148.721 58.9147 148.958 61.0992 149.403 63.0628C149.403 63.0625 149.403 63.0622 149.403 63.0619L149.409 63.1C149.774 65.3737 150.143 67.6648 150.11 69.9772C149.814 70.4005 149.932 71.0111 150.409 71.218Z" fill="#1A1A1A"/>
<path d="M123.257 92.2048C124.15 92.4011 124.088 91.1143 123.259 91.2738C118.82 88.9593 110.466 75.6271 106.976 85.8242C98.6677 84.4197 91.024 80.1402 83.0928 77.4104C80.9672 77.0285 76.0635 72.8873 75.4249 76.6803C75.489 78.8694 78.375 78.7432 79.8929 79.5733C83.2313 80.8218 86.5936 82.003 89.9382 83.2367C94.6449 84.3693 104.56 90.19 108.729 88.0729C109.734 86.9351 109.441 84.0113 111.759 84.9331C116.081 86.5167 118.781 90.948 123.257 92.2048Z" fill="#1A1A1A"/>
<path d="M69.4813 161.061C79.8957 158.216 90.4416 155.256 99.3888 149.206C100.586 148.556 101.664 147.383 100.852 146.09C100.587 144.867 98.5231 143.098 99.9871 142.078C104.207 139.874 109.279 140.385 113.864 139.644C115.066 138.251 108.815 138.854 107.959 138.525C102.016 138.409 93.676 139.271 98.4481 146.608C93.5361 149.749 88.0203 151.975 82.4668 153.884C82.5325 153.864 82.5955 153.844 82.6612 153.824C77.8235 155.457 72.6947 156.121 67.842 157.689C65.7127 158.624 67.4064 161.849 69.4813 161.061Z" fill="#1A1A1A"/>
<path d="M300.247 222.537C295.416 216.793 287.02 220.729 283.426 223.415C281.413 221.022 277.449 210.303 271.341 209.78C263.706 209.127 262.836 219.264 258.955 225.088C255.073 230.912 254.264 235.26 261.12 237.367C263.725 238.168 279.545 229.239 280.271 232.85C280.998 236.461 287.779 245.803 289.3 246.513C290.821 247.222 298.456 247.875 298.524 241.363C298.591 234.851 306.286 229.716 300.247 222.537Z" fill="#266FFE"/>
<path d="M191.762 198.718C193.23 195.674 187.222 193.841 185.593 191.979C183.54 190.062 181.126 188.587 178.906 186.883C178.422 186.268 177.396 185.886 176.886 186.716C173.89 187.997 183.538 193.374 184.598 194.638C186.488 195.314 190.109 200.503 191.762 198.718Z" fill="#1A1A1A"/>
<path d="M201.272 161.464C202.71 161.08 201.398 158.982 200.426 158.833C198.881 159.085 200.307 161.373 201.272 161.464Z" fill="#1A1A1A"/>
<path d="M195.01 164.787C196.725 164.967 194.647 160.062 196.337 157.83C196.313 157.864 196.289 157.896 196.267 157.931C197.548 156.952 199.144 159.437 199.887 160.34C200.509 160.93 200.652 162.124 201.542 162.357C204.843 163.221 199.131 155.826 197.77 155.863C193.806 153.642 192.782 164.227 195.01 164.787Z" fill="#1A1A1A"/>
<path d="M319.829 369.544C320.174 368.622 318.968 368.428 318.345 368.148C318.35 368.149 318.352 368.152 318.357 368.153C318.335 368.143 318.312 368.136 318.29 368.126L318.298 368.128C318.28 368.122 318.263 368.113 318.246 368.107L318.248 368.107C318.226 368.097 318.204 368.09 318.181 368.08C318.187 368.081 318.191 368.085 318.196 368.086C318.164 368.074 318.132 368.06 318.1 368.048C317.252 367.9 316.088 366.653 315.331 367.335C315.316 367.663 315.262 368.239 315.595 368.418C315.905 368.505 316.012 368.153 315.959 367.92C316.957 368.279 318.946 370.658 319.829 369.544Z" fill="#1A1A1A"/>
<path d="M319.635 361.493C321.058 361.473 328.077 361.739 327.463 359.62C327.329 359.12 326.848 358.743 326.303 358.87C324.097 359.347 321.882 360.129 319.604 359.894C318.615 359.892 318.718 361.474 319.635 361.493Z" fill="#1A1A1A"/>
<path d="M299.146 335.864C299.91 335.763 301.52 336.39 301.766 335.428C301.555 334.421 299.915 335.05 299.124 334.768C298.446 334.768 298.517 335.85 299.146 335.864Z" fill="#1A1A1A"/>
<path d="M203.169 255.145C204.583 254.817 202.876 252.984 202.599 252.248C201.96 251.555 201.605 249.546 200.39 249.925C199.344 251.015 202.391 253.277 202.697 254.593C202.695 254.587 202.691 254.581 202.689 254.578C202.762 254.821 202.875 255.098 203.169 255.145Z" fill="#1A1A1A"/>
<path d="M195.128 260.679C195.416 259.788 194.072 256.527 192.9 257.071C191.968 257.947 193.513 258.955 193.775 259.823C194.009 260.206 193.814 260.783 194.322 260.996C194.618 261.137 195.012 260.999 195.128 260.679Z" fill="#1A1A1A"/>
<path d="M146.561 291.383C147.562 289.972 146.02 288.075 145.589 286.656C145.59 286.662 145.592 286.665 145.596 286.671C145.56 286.595 145.524 286.52 145.488 286.444C145.49 286.447 145.492 286.45 145.493 286.456C145.485 286.436 145.475 286.418 145.466 286.401C145.468 286.404 145.47 286.407 145.471 286.412C145.464 286.398 145.457 286.381 145.45 286.366C145.452 286.369 145.451 286.372 145.454 286.372C145.441 286.346 145.428 286.32 145.416 286.294C145.417 286.299 145.419 286.302 145.42 286.308C144.234 283.154 142.347 285.041 143.805 285.706C143.813 285.718 143.821 285.73 143.829 285.742C143.821 285.73 143.816 285.718 143.808 285.706C143.821 285.727 143.835 285.751 143.849 285.772C143.845 285.766 143.843 285.763 143.839 285.757C144.601 287.245 145.27 288.9 145.454 290.557C145.337 291.12 146.008 291.751 146.561 291.383Z" fill="#1A1A1A"/>
<path d="M139.461 291.021C141.315 290.547 139.507 287.628 139.332 286.427C139.335 286.435 139.338 286.444 139.339 286.452C138.821 285.533 138.641 283.301 137.228 283.513C136.782 283.716 136.687 284.302 136.907 284.684C138.308 286.165 138.137 290.983 139.461 291.021Z" fill="#1A1A1A"/>
<path d="M89.3193 285.588C89.5291 282.425 90.0065 279.209 91.696 276.418C91.6814 276.446 91.6668 276.475 91.6522 276.503C91.7015 276.406 91.7502 276.312 91.7969 276.214C91.7823 276.242 91.7682 276.268 91.7536 276.297C92.6941 275.129 91.2672 273.654 90.8076 275.279C89.1338 277.661 88.1017 280.359 87.5911 283.182C87.5963 283.16 87.5996 283.134 87.6048 283.112C87.5963 283.16 87.5847 283.21 87.5761 283.257C87.5767 283.255 87.5767 283.255 87.5773 283.252C87.5665 283.31 87.5531 283.367 87.5422 283.425C87.5475 283.403 87.5496 283.382 87.5548 283.36C87.4211 284.376 86.7307 285.965 88.0368 286.466C88.6267 286.663 89.2711 286.204 89.3193 285.588Z" fill="#1A1A1A"/>
<path d="M98.242 300.841C99.3971 300.179 98.3176 299.014 97.959 298.225C97.1044 296.285 96.8077 294.16 96.6637 292.058C96.6642 292.079 96.6671 292.101 96.667 292.124C96.5988 290.681 96.536 289.226 96.7538 287.786C96.6558 288.226 97.2655 288.585 97.357 288.013C97.3435 287.568 97.2125 287.043 96.835 286.767C94.8436 287.259 95.5116 295.525 95.9374 297.328C95.9288 297.285 95.9197 297.244 95.9138 297.201C96.3291 298.364 96.5188 301.115 98.242 300.841Z" fill="#1A1A1A"/>
<path d="M105.51 309.972C107.547 309.635 105.369 307.77 104.683 307.111C104.2 306.693 103.908 305.984 103.262 305.788C101.21 306.151 104.498 308.687 104.901 309.513C104.878 309.487 104.857 309.459 104.834 309.431C105.013 309.656 105.192 309.921 105.51 309.972Z" fill="#1A1A1A"/>
<path d="M352.724 161.599C354.712 160.337 357.365 158.572 357.497 156.088L357.497 156.09C357.495 155.676 356.83 155.607 356.843 156.065C356.885 156.32 356.786 156.57 356.676 156.799C356.682 156.784 356.689 156.767 356.697 156.753C355.697 158.509 353.808 159.578 352.084 160.577C351.501 160.959 352.094 161.977 352.724 161.599Z" fill="white"/>
<path d="M351.682 142.352C354.135 142.25 352.305 138.142 351.338 137.149C350.512 136.646 349.351 134.606 348.321 135.348C348.08 135.648 348.155 136.109 348.429 136.356C349.614 137.466 351.132 138.377 351.58 140.015C351.568 139.986 351.558 139.958 351.547 139.927C351.686 140.365 351.823 140.828 351.74 141.293C351.079 141.246 351.094 142.27 351.682 142.352Z" fill="white"/>
<path d="M335.428 127.067C336.437 127.113 339.119 127.266 339.457 126.196C339.457 126.199 339.455 126.204 339.457 126.207C339.246 124.938 337.507 126.068 336.635 125.88C336.031 125.945 334.863 125.489 334.827 126.415C334.835 126.741 335.09 127.038 335.428 127.067Z" fill="white"/>
<path d="M331.742 117.918C333.387 116.869 329.632 112.02 328.098 111.741C326.68 111.402 327.107 113.098 328.127 113.336C328.098 113.32 328.07 113.301 328.042 113.282C329.531 114.064 330.369 115.602 330.98 117.079C330.848 117.527 331.264 118.019 331.742 117.918Z" fill="white"/>
<path d="M311.164 105.367C312.546 104.707 308.087 102.023 307.394 101.624C306.742 101.42 305.123 101.536 305.313 102.479C305.392 102.743 305.695 103.011 306.001 102.911C307.985 102.227 309.779 104.357 311.164 105.367Z" fill="white"/>
<path d="M297.716 106.265C298.588 106.339 299.916 106.4 300.484 105.658C300.471 105.483 300.288 105.483 300.198 105.603C300.17 105.616 300.14 105.628 300.111 105.638C300.113 105.639 300.114 105.636 300.114 105.636C299.799 105.74 299.469 105.779 299.142 105.792C299.148 105.793 299.153 105.792 299.156 105.792C299.145 105.793 299.137 105.794 299.126 105.792C298.941 105.794 298.757 105.778 298.572 105.756C298.575 105.756 298.577 105.757 298.577 105.757C298.564 105.754 298.553 105.755 298.54 105.752C298.545 105.753 298.551 105.754 298.559 105.753C297.431 105.694 296.513 104.74 295.445 104.693C294.434 105.785 296.996 106.089 297.716 106.265Z" fill="white"/>
<path d="M292.326 97.557C292.694 96.788 291.621 96.5232 291.172 96.1291C290.349 95.6646 289.781 94.7745 288.909 94.4397C288.245 94.4135 288.141 95.3176 288.617 95.6222C289.571 96.0343 291.403 98.3112 292.326 97.557Z" fill="white"/>
<path d="M317.173 116.767C319.406 115.788 317.976 113.671 317.218 115.093C316.988 115.298 316.704 115.44 316.44 115.599C315.767 116.029 316.461 117.203 317.173 116.767Z" fill="white"/>
<path d="M241.665 144.422C242.454 142.72 240.732 140.451 240.24 138.757C240.057 138.377 239.565 138.191 239.182 138.433C238.032 139.554 240.509 142.219 240.497 143.756C240.498 143.717 240.497 143.677 240.496 143.638C240.494 143.666 240.495 143.696 240.497 143.725C240.498 143.717 240.498 143.707 240.5 143.699C240.412 144.302 241.124 144.891 241.665 144.422Z" fill="white"/>
<path d="M237.604 143.07C238.894 142.505 237.022 141.098 236.95 140.2C236.415 139.452 236.549 137.44 235.293 137.631C234.944 137.783 234.784 138.244 234.925 138.574C235.713 140.015 236.072 142.28 237.604 143.07Z" fill="white"/>
<path d="M232.815 140.975C232.612 138.854 231.99 136.442 230.796 134.676C229.282 134.118 229.385 136.059 230.003 136.841C229.985 136.801 229.968 136.761 229.951 136.721C230.493 138.017 231.033 139.326 231.352 140.694C231.183 141.653 232.634 142.007 232.815 140.975Z" fill="white"/>
</svg>
