<svg width="346" height="250" viewBox="0 0 346 250" fill="none" xmlns="http://www.w3.org/2000/svg">
<path d="M132.811 17.8141C137.999 27.3183 134.805 39.5873 133.091 43.1151C120.453 59.0279 89.4268 84.352 93.5341 97.0553C95.6278 105.533 130.203 112.151 118.764 117.778C109.804 121.377 100.65 107.477 99.2104 112.993L94.7935 120.543L95.3597 126.537L101.398 129.97L108.875 127.888L115.452 134.816C78.9207 128.748 66.2511 116.858 63.2044 79.1589C61.5186 66.3115 70.963 41.9725 77.2575 39.1526C82.2932 36.8968 85.9957 43.5179 87.2175 47.1105C87.152 40.0428 88.0334 25.5723 92.0835 24.2311C97.1461 22.5545 100.854 32.1302 102.834 30.0605C104.814 27.9908 99.383 13.2726 106.339 11.9305C113.296 10.5884 113.836 22.1749 115.509 22.0168C117.182 21.8586 114.706 11.1397 118.929 6.29085C123.151 1.44202 126.326 5.93384 132.811 17.8141Z" fill="#266FFE"/>
<path fill-rule="evenodd" clip-rule="evenodd" d="M2.75967 224.492C3.05416 224.662 7.38756 224.507 12.3904 224.146C24.6947 223.259 49.5297 222.55 55.9982 222.901L61.2592 223.187L62.7618 229.123C65.9253 241.624 70.4017 247.474 73.0183 242.527C73.6514 241.33 73.9811 241.093 74.0066 241.816C74.0552 243.213 77.188 246.865 78.3258 246.852C80.154 246.832 81.2182 244.81 81.1866 241.416L81.156 238.053L83.1665 241.467C86.9158 247.833 91.1901 247.091 90.3112 240.225C90.2429 239.69 90.9336 240.12 91.8472 241.182C92.7602 242.244 93.52 243.332 93.5359 243.599C93.5519 243.866 94.1394 244.079 94.8423 244.072C98.3654 244.033 98.103 237.104 94.134 225.388L91.5133 217.652L106.204 217.103C114.285 216.8 127.329 216.174 135.191 215.711C143.497 215.222 172.786 214.684 205.095 214.428L260.702 213.987L263.177 223.615C267.857 241.816 273.23 247.871 276.329 238.435C276.906 236.676 277.408 235.751 277.444 236.379C277.546 238.171 280.271 243.401 281.303 243.784C282.738 244.316 283.928 242.648 284.871 238.784C285.818 234.903 285.92 234.941 287.565 239.796C290.393 248.138 295.838 248.671 295.749 240.597L295.717 237.681L297.211 240.522C301.002 247.726 303.913 244.915 303.318 234.625C302.948 228.214 300.562 215.471 299.299 213.156C298.387 211.482 298.309 211.32 310.513 211.204C329.41 211.024 345.018 210.728 345.197 210.546C345.375 210.363 345.315 209.891 345.065 209.495C344.48 208.572 301.796 210.183 298.884 210.089C296.794 210.022 297.569 210.416 295.629 199.588C291.482 176.441 286.268 161.354 280.575 156.025C278.151 153.757 264.637 151.968 237.206 150.287C226.828 149.651 215.554 148.87 212.153 148.553C208.752 148.236 202.319 148.059 197.858 148.16L189.747 148.345L188.379 146.5C187.627 145.486 184.475 141.322 181.376 137.248C178.277 133.175 174.506 128.046 172.996 125.853C171.486 123.659 169.954 121.686 169.592 121.468C168.31 120.695 168.976 119.95 173.603 116.975C179.268 113.334 185.093 107.748 186.264 104.834C187.911 100.734 186.179 97.9477 169.139 77.2825C158.316 64.1562 135.061 42.3392 132.746 43.139C131.681 43.5066 131.471 44.9216 132.484 44.9104C132.986 44.9049 134.636 45.9362 136.149 47.2016L138.902 49.5036L134.416 54.4081C129.65 59.6203 128.204 63.0292 130.028 64.7485C130.526 65.2177 134.318 67.3874 138.455 69.5695C163.041 82.5386 165.747 87.5157 150.055 90.8988C142.964 92.4274 142.686 92.5474 143.773 93.609C144.704 94.5184 154.071 92.5399 157.664 90.6745C162.788 88.0154 163.176 85.3514 159.064 81.0556C157.275 79.1872 156.094 77.3479 156.077 76.4076C156.039 74.0764 155.319 71.9371 154.578 71.9453C154.176 71.9497 154.092 72.9522 154.361 74.5249L154.802 77.0972L150.543 74.4943C148.2 73.0627 146.281 71.7466 146.28 71.5693C146.272 70.8614 152.326 62.8772 152.874 62.8711C153.876 62.8601 159.507 69.3682 159.617 70.6634C159.754 72.2759 160.552 73.0088 161.129 72.0522C162.011 70.5915 184.042 97.9434 184.722 101.342C185.477 105.117 179.389 111.549 170.026 116.87C166.296 118.988 164.355 121.199 166.242 121.178C166.549 121.175 167.929 122.84 169.31 124.879C170.689 126.918 173.502 130.759 175.559 133.416C177.616 136.072 181.707 141.372 184.649 145.194L189.999 152.143L189.148 155.211C188.681 156.899 186.989 163.556 185.39 170.004C183.792 176.451 181.788 184.011 180.94 186.803L179.397 191.879L173.696 187.566C170.56 185.195 161.796 178.324 154.219 172.298C146.642 166.271 138.377 159.738 135.852 157.78C132.477 155.162 129.427 151.783 124.332 145.016C116.362 134.429 110.129 127.068 108.68 126.531C108.128 126.326 106.773 126.538 105.669 127.003C98.32 130.09 95.0266 127.558 97.0338 120.365C97.5911 118.368 98.3006 116.732 98.6108 116.729C99.597 116.718 101.888 111.273 101.193 110.594C100.267 109.689 96.3081 114.538 95.1313 118.02C92.2134 126.65 96.6746 132.121 104.45 129.447L107.568 128.374L109.611 130.436C112.447 133.299 126.528 151.537 126.178 151.895C126.021 152.056 121.239 151.802 115.551 151.331C80.5937 148.439 57.1864 149.243 47.1613 153.683C42.8635 155.586 38.9917 159.98 37.7366 164.378C34.6979 175.027 38.3655 198.605 45.7638 215.979C46.8786 218.596 47.7917 220.844 47.7931 220.974C47.7945 221.103 42.3994 221.269 35.803 221.342C25.6534 221.454 18.6746 221.882 5.06702 223.225C2.83589 223.445 1.87159 223.975 2.75967 224.492ZM63.633 213.449C67.2587 208.154 85.4876 207.817 95.7571 212.853C101.289 215.567 101.205 216.005 95.2165 215.661C88.5305 215.278 88.5009 215.368 92.0438 225.413C94.9174 233.562 96.6007 243.503 94.9368 242.502C93.7114 241.764 91.2222 236.511 88.8632 229.686C87.505 225.756 86.3435 223.382 85.783 223.388C84.6336 223.401 84.5585 222.901 86.9173 230.95C92.3958 249.644 86.1079 248.396 80.0051 229.578C78.9611 226.357 77.9174 224.179 77.4939 224.335C76.5873 224.668 76.6128 224.922 78.4693 234.17C80.0257 241.924 79.9784 244.885 78.2978 244.904C76.9487 244.919 75.6283 242.109 73.4022 234.486C71.2228 227.021 69.4408 224.923 70.2538 230.778C70.5202 232.699 70.9411 236.314 71.1891 238.812L71.6398 243.354L70.1633 242.072C65.7364 238.233 60.9696 217.337 63.633 213.449ZM75.9681 196.267C77.643 196.321 85.5822 199.602 85.4207 200.172C85.2104 200.915 84.9712 200.864 79.7315 198.969C75.0611 197.278 73.5418 196.188 75.9681 196.267ZM96.7975 184.296C97.1512 184.293 98.5221 186.378 99.8443 188.931C101.167 191.484 104.774 198.049 107.86 203.521C110.946 208.993 113.283 213.661 113.054 213.895C112.332 214.632 112.213 214.436 98.742 190.445C96.1446 185.819 95.6669 184.309 96.7975 184.296ZM104.697 91.8185C105.285 94.6984 107.348 93.387 113.422 86.2703C123.148 74.8773 123.837 73.5077 120.465 72.27C117.984 71.3582 116.295 72.4485 112.457 77.4394C108.954 81.9934 104.159 89.3674 104.306 89.975C104.357 90.1869 104.533 91.0163 104.697 91.8185ZM118.011 97.8417C119.267 99.9407 120.88 98.9668 127.576 92.0641C134.975 84.4385 135.094 83.9429 129.839 82.6824C123.925 81.2643 120.576 82.4262 118.492 86.6203C117.096 89.4298 116.821 95.8512 118.011 97.8417ZM120.126 87.307L120.913 85.7174L121.382 87.1378C121.639 87.9189 122.749 89.0095 123.847 89.5618L125.843 90.5653L122.71 93.8149C119.725 96.9109 119.556 96.9946 119.147 95.5819C118.599 93.6863 119.11 89.3589 120.126 87.307ZM124.592 153.848C126.83 154.071 128.762 154.504 128.885 154.812C129.008 155.119 133.733 159.018 139.384 163.475C145.036 167.932 149.937 171.819 150.275 172.111C150.636 172.423 149.424 174.106 147.347 176.176C145.399 178.12 141.981 181.96 139.754 184.711C137.527 187.462 135.49 189.715 135.227 189.718C134.399 189.727 120.756 156.46 120.563 153.962C120.542 153.678 122.355 153.626 124.592 153.848ZM125.243 86.5581C125.383 86.5565 125.678 87.0066 125.897 87.5589C126.125 88.1344 126.019 88.396 125.648 88.1728C125.026 87.7984 124.716 86.5639 125.243 86.5581ZM129.553 106.158C129.92 107.497 131.073 107.672 131.058 106.385C131.037 104.454 130.161 101.442 129.622 101.448C129.039 101.455 129 104.134 129.553 106.158ZM130.246 84.5543C131.419 84.5414 131.502 84.6925 130.803 85.553C130.145 86.363 129.869 86.3992 129.435 85.7304C128.686 84.58 128.692 84.5715 130.246 84.5543ZM132.761 102.225C132.932 102.848 133.342 103.356 133.673 103.352C134.005 103.348 134.266 102.834 134.254 102.209C134.219 100.342 133.457 98.1583 132.842 98.1651C132.252 98.1716 132.211 100.215 132.761 102.225ZM134.462 62.7647C135.161 62.1185 137.232 59.5743 139.064 57.1119L142.394 52.6339L145.071 55.0205L147.749 57.407L146.007 57.9212C142.151 59.0601 140.683 63.3636 142.619 67.853L143.576 70.0709L138.4 67.391C132.666 64.4232 132.667 64.4238 134.462 62.7647ZM136.093 98.4539C136.449 100.028 137.501 100.997 137.487 99.7375C137.485 99.5589 137.474 98.5361 137.462 97.4646C137.448 96.1658 137.116 95.5199 136.465 95.5271C135.929 95.533 135.527 95.7563 135.572 96.0241C135.618 96.2918 135.852 97.3849 136.093 98.4539ZM145.46 64.6982C147.243 66.4133 147.288 66.5837 146.333 68.0763L145.328 69.6488L144.501 67.7718C144.047 66.7402 143.654 65.2196 143.629 64.3937C143.583 62.903 143.597 62.9054 145.46 64.6982ZM150.019 60.2846C150.779 60.6801 151.221 61.3027 151.001 61.6675C150.754 62.0768 150.12 61.9072 149.348 61.2246C147.794 59.8499 148.17 59.3223 150.019 60.2846ZM155.136 104.136C160.932 103.416 162.87 101.836 162.826 97.8665C162.801 95.6221 161.036 96.384 160.605 98.825C160.134 101.492 159.079 102.191 154.54 102.843C149.687 103.541 150.242 104.744 155.136 104.136ZM157.816 74.6699C157.986 75.2928 158.397 75.8001 158.728 75.7964C159.06 75.7928 159.321 75.2781 159.309 74.6534C159.274 72.7865 158.511 70.6029 157.897 70.6096C157.307 70.6161 157.266 72.6599 157.816 74.6699ZM189.846 161.563C191.056 156.934 192.038 152.424 192.029 151.54C192.011 149.948 192.053 149.937 196.404 150.298C198.82 150.5 202.005 150.653 203.482 150.639L206.167 150.614L206.738 159.538C207.052 164.446 207.553 171.236 207.851 174.627C208.148 178.017 208.326 180.883 208.245 180.995C208.165 181.107 204.88 179.63 200.946 177.713C197.012 175.797 192.269 173.749 190.405 173.163C187.836 172.355 187.093 171.842 187.331 171.038C187.504 170.456 188.636 166.192 189.846 161.563ZM249.705 178.062C250.32 178.057 250.607 181.206 250.889 191.039C251.142 199.919 251.042 204.027 250.569 204.032C249.882 204.04 249.551 199.751 249.104 185.05C248.945 179.827 249.097 178.068 249.705 178.062ZM257.882 205.894C269.395 201.779 289.944 204.086 294.85 210.043C297.669 213.467 301.468 229.1 301.567 237.691C301.657 245.436 299.854 243.541 295.329 231.135C293.644 226.513 292.112 222.319 291.926 221.815C291.668 221.117 291.408 221.081 290.839 221.663C290.268 222.245 290.465 223.55 291.66 227.121C293.239 231.836 294.39 242.031 293.587 244.192C292.525 247.05 287.486 236.647 285.238 226.954C284.095 222.025 283.229 220.239 282.394 221.092C281.851 221.646 281.988 223.178 282.931 227.101C284.006 231.575 284.094 233.006 283.515 236.618C282.194 244.869 280.84 243.194 277.085 228.659C274.689 219.385 274.235 218.26 273.282 219.233C272.883 219.64 273.068 221.414 273.798 224.191C275.151 229.339 275.124 239.564 273.754 240.928C271.386 243.285 267.339 234.26 264.008 219.197C261.976 210.003 262.416 210.541 256.531 210.06C250.784 209.591 251.21 208.278 257.882 205.894Z" fill="black"/>
</svg>
