<svg width="119" height="32" viewBox="0 0 119 32" fill="none" xmlns="http://www.w3.org/2000/svg">
<g clip-path="url(#clip0_20724_103189)">
<path fill-rule="evenodd" clip-rule="evenodd" d="M80.945 6.25943C81.3818 6.25943 81.6729 6.40488 81.6729 6.84125L81.0906 16.7322L85.7493 6.40488C85.8949 6.11397 86.186 5.96852 86.4772 5.96852H95.0667C95.3579 5.96852 95.649 6.25943 95.649 6.55034C95.649 6.69579 95.649 6.69579 95.649 6.84125L84.439 31.5686C84.2934 31.8595 84.0023 32.0049 83.7111 32.0049H71.7732C71.3364 32.0049 71.0453 31.714 71.0453 31.2777L72.6467 6.9867C72.6467 6.55034 72.9379 6.25943 73.3746 6.25943H80.945ZM40.0358 6.25943L39.3079 9.31397C40.4513 8.17156 41.7828 6.69579 43.2386 6.25943H50.9546C51.3462 6.25943 51.7236 6.55034 51.2458 6.9867C48.9164 8.5867 47.0238 9.89579 45.8592 11.2049C44.9856 12.0777 43.9666 13.5322 42.9475 15.714L42.074 18.0413L41.346 20.6595L39.0167 31.4231C39.0167 31.714 38.5799 32.0049 38.2888 32.0049H29.5537C29.1169 32.0049 28.8258 31.714 28.8258 31.2777V31.1322L33.9212 6.84125C33.9212 6.55034 34.358 6.25943 34.6492 6.25943H40.0358ZM57.9427 6.11397C65.0763 6.11397 70.7541 11.7868 70.7541 18.914C70.7541 26.0413 65.0763 31.714 57.9427 31.714C50.809 31.714 45.1312 26.0413 45.1312 18.914C45.1312 11.7868 50.809 6.11397 57.9427 6.11397ZM105.258 6.11397C112.391 6.11397 118.069 11.7868 118.069 18.914C118.069 26.0413 112.391 31.714 105.258 31.714C98.124 31.714 92.4462 26.0413 92.4462 18.914C92.4462 11.7868 98.124 6.11397 105.258 6.11397ZM57.9427 14.8413C55.6133 14.8413 53.8663 16.7322 53.8663 18.914C53.8663 21.0958 55.7589 22.9868 57.9427 22.9868C60.1264 22.9868 62.019 21.0958 62.019 18.914C62.019 16.7322 60.272 14.8413 57.9427 14.8413ZM22.1289 0.00488281C22.5656 0.00488281 22.8568 0.295792 22.8568 0.732156V0.87761L21.8377 5.53216C21.8377 5.67761 21.9833 5.96852 22.1289 5.96852C22.1289 5.96852 22.1289 5.96852 22.2745 5.96852H31.5919C32.0286 5.96852 32.4542 6.25943 32.3198 6.84125L30.136 16.0049C29.9905 16.4413 29.6993 16.5868 29.2625 16.5868L24.1671 16.2959C22.5656 16.2959 20.8186 16.7322 19.5084 18.1868C17.7614 19.9322 17.6158 22.5504 18.3437 24.4413C19.0716 26.3322 21.1098 27.3504 23.148 26.914C24.7494 26.6231 25.6229 25.0231 25.4773 23.714C25.3317 22.2595 24.7494 21.8231 23.8759 21.8231C23.0024 21.8231 22.7112 22.2595 22.7112 22.6959C22.7112 23.1322 22.8568 23.4231 23.148 23.714C23.5847 24.1504 22.7112 25.4595 21.5466 24.7322C20.8186 24.2959 20.3819 23.4231 20.5275 22.114C20.673 20.514 21.9833 19.0595 24.3127 19.0595C26.642 19.0595 28.389 20.514 28.8258 22.6959C29.5537 25.4595 28.0979 28.8049 24.7494 30.5504C20.673 32.7322 13.8306 32.5868 10.0453 28.514C7.86156 26.1868 7.13364 23.1322 7.27922 20.3686C7.27922 19.4959 7.42481 18.4777 7.71597 17.6049C7.71597 17.314 7.57039 17.0231 7.27922 16.8777H7.13364H0.727922C0.291169 16.8777 0 16.4413 0 16.0049V15.8595L2.03818 6.9867C2.18377 6.40488 2.62052 6.11397 3.20286 6.11397H9.46299C9.75416 5.96852 10.0453 5.82307 10.1909 5.3867L11.21 0.87761C11.3556 0.295792 11.938 0.00488281 12.3747 0.00488281H22.1289ZM105.258 14.8413C107.587 14.8413 109.334 16.7322 109.334 18.914C109.334 21.0958 107.441 22.9868 105.258 22.9868C103.074 22.9868 101.181 21.0958 101.181 18.914C101.181 16.7322 103.074 14.8413 105.258 14.8413Z" fill="#19D66B"/>
</g>
<defs>
<clipPath id="clip0_20724_103189">
<rect width="118.069" height="32" fill="white"/>
</clipPath>
</defs>
</svg>
