<svg width="97" height="32" viewBox="0 0 97 32" fill="none" xmlns="http://www.w3.org/2000/svg">
<g clip-path="url(#clip0_20724_103205)">
<path fill-rule="evenodd" clip-rule="evenodd" d="M94.3471 11.034L90.4856 7.17271H83.312V2.2064H77.2418V24.8279H83.312V13.2407H88.2769V24.8279H94.3471V11.034ZM75.0362 7.17271H65.6566L61.7942 11.034V20.9649L65.6566 24.8279H75.0362V18.7593H67.8627V13.2407H75.0362V7.17271V7.17271ZM59.5872 7.17271H54.6223V2.2064H48.5521V20.9649L52.4145 24.8279H59.5872V18.7593H54.6223V13.2407H59.5872V7.17271V7.17271ZM46.3451 2.2064H40.2766V4.96602H46.3451V2.2064ZM46.3451 7.17271H40.2766V24.8276H46.3451V7.17271V7.17271ZM38.0697 7.17271H32.0006V18.7593H29.7942V7.17271H23.7248V18.7593H21.5187V7.17271H15.4485V24.8279H34.2081L38.0697 20.9649V7.17271V7.17271ZM13.2415 7.17271H8.27633V2.2064H2.20724V20.9649L6.06937 24.8279H13.2415V18.7593H8.27633V13.2407H13.2415V7.17271V7.17271ZM96.5524 9.93035V26.4822L88.2769 32H82.7599V29.2404L78.8978 32H73.9329V29.2404L71.175 32H62.3468L59.5872 29.2404L59.0348 32H51.3117L48.1534 29.2404L47.9765 32H39.2225L38.9129 29.2404L36.5433 32H23.1724L20.4134 30.8964V32H13.2415L4.96517 27.0331L0 22.0699V-1.29505e-06H10.4836L15.4485 4.96602H38.0697V-1.29505e-06H56.8284V4.96602H61.7942V7.72395L64.5538 4.96602H70.0699L75.0362 -1.29505e-06H85.519V4.96602H91.5883L96.5524 9.93035Z" fill="#6441A5"/>
</g>
<defs>
<clipPath id="clip0_20724_103205">
<rect width="96.5524" height="32" fill="white"/>
</clipPath>
</defs>
</svg>
