<svg width="64" height="23" viewBox="0 0 64 23" fill="none" xmlns="http://www.w3.org/2000/svg">
<path fill-rule="evenodd" clip-rule="evenodd" d="M6.7091 18.3228C7.8752 18.3228 8.88157 18.1743 9.72819 17.8775C10.5748 17.5806 11.2697 17.1514 11.8128 16.5897C12.3559 16.0281 12.7593 15.3421 13.0228 14.5318C13.2864 13.7214 13.4182 12.8027 13.4182 11.7757V1.13678H9.82404V11.7998C9.82404 12.8268 9.56845 13.6733 9.05728 14.3392C8.54611 15.0051 7.76339 15.3381 6.7091 15.3381C5.65481 15.3381 4.87208 15.0051 4.36091 14.3392C3.84974 13.6733 3.59416 12.8268 3.59416 11.7998V1.13678H0V11.7757C0 12.8027 0.131786 13.7214 0.395358 14.5318C0.658929 15.3421 1.06227 16.0281 1.60539 16.5897C2.14851 17.1514 2.84338 17.5806 3.69 17.8775C4.53663 18.1743 5.54299 18.3228 6.7091 18.3228ZM23.7215 18.3228C22.7631 18.3228 22.0003 18.1463 21.4333 17.7933C20.8662 17.4403 20.4389 17.0391 20.1513 16.5898V22.7999H16.701V6.52852H20.0315V8.16528C20.351 7.57156 20.8382 7.09417 21.4932 6.73312C22.1481 6.37207 22.8909 6.19154 23.7215 6.19154C24.4244 6.19154 25.0833 6.33195 25.6983 6.61277C26.3133 6.89358 26.8485 7.29876 27.3037 7.8283C27.759 8.35784 28.1184 8.9957 28.382 9.74187C28.6455 10.488 28.7773 11.3265 28.7773 12.2572C28.7773 13.2039 28.6455 14.0504 28.382 14.7966C28.1184 15.5427 27.759 16.1766 27.3037 16.6981C26.8485 17.2196 26.3133 17.6208 25.6983 17.9016C25.0833 18.1824 24.4244 18.3228 23.7215 18.3228ZM20.1273 12.5941C20.1273 13.1397 20.2112 13.6051 20.3789 13.9902C20.5467 14.3753 20.7583 14.6922 21.0139 14.941C21.2695 15.1897 21.553 15.3702 21.8645 15.4825C22.176 15.5949 22.4755 15.651 22.7631 15.651C23.5298 15.651 24.1368 15.3301 24.5841 14.6882C25.0314 14.0464 25.255 13.236 25.255 12.2571C25.255 11.2943 25.0314 10.488 24.5841 9.83811C24.1368 9.18822 23.5298 8.86327 22.7631 8.86327C22.4596 8.86327 22.1521 8.91943 21.8406 9.03176C21.5291 9.14409 21.2455 9.32461 20.9899 9.57334C20.7344 9.82206 20.5267 10.143 20.367 10.5361C20.2072 10.9293 20.1273 11.3986 20.1273 11.9442V12.5941ZM31.2453 1.13678V17.9858H34.6956V1.13678H31.2453ZM37.547 2.84576C37.547 3.40739 37.7267 3.88077 38.0862 4.26589C38.4456 4.65101 38.9528 4.84357 39.6077 4.84357C40.2626 4.84357 40.7698 4.65101 41.1292 4.26589C41.4886 3.88077 41.6683 3.40739 41.6683 2.84576C41.6683 2.23598 41.4767 1.74255 41.0933 1.36545C40.7099 0.988353 40.2147 0.799805 39.6077 0.799805C39.0007 0.799805 38.5055 0.988353 38.1221 1.36545C37.7387 1.74255 37.547 2.23598 37.547 2.84576ZM37.8825 6.52852V17.9858H41.3329V6.52852H37.8825ZM43.3216 6.52847H45.2145V5.68602C45.2145 4.75531 45.3503 3.97705 45.6218 3.35123C45.8934 2.72541 46.2408 2.22395 46.6641 1.84685C47.0874 1.46975 47.5627 1.20097 48.0898 1.0405C48.617 0.880038 49.1441 0.799805 49.6713 0.799805C50.3422 0.799805 50.9771 0.888062 51.5762 1.06457C52.1752 1.24109 52.6584 1.48179 53.0258 1.78668L51.66 4.28996C51.4843 4.11344 51.2647 3.94897 51.0011 3.79652C50.7375 3.64408 50.43 3.56786 50.0786 3.56786C49.7112 3.56786 49.3837 3.70425 49.0962 3.97705C48.8087 4.24984 48.6649 4.76333 48.6649 5.51753V6.52847H51.1568V9.05582H48.6649V17.9858H45.2145V9.05582H43.3216V6.52847ZM54.7271 22.7999L56.4523 18.0821L52.0195 6.52852H55.4939C55.8932 7.71597 56.2686 8.81517 56.62 9.82611C56.7638 10.2594 56.9116 10.7007 57.0633 11.15C57.2151 11.5993 57.3588 12.0205 57.4946 12.4136C57.6304 12.8068 57.7502 13.1638 57.854 13.4848C57.9579 13.8057 58.0417 14.0624 58.1056 14.255H58.1536C58.2175 14.0624 58.3013 13.8057 58.4051 13.4848C58.509 13.1638 58.6248 12.8068 58.7526 12.4136C58.8804 12.0205 59.0201 11.5993 59.1719 11.15C59.3237 10.7007 59.4714 10.2594 59.6152 9.82611C59.9506 8.81517 60.326 7.71597 60.7413 6.52852H64.0001L57.9619 22.7999H54.7271Z" fill="#1A1A1A"/>
</svg>
