<svg width="92" height="30" viewBox="0 0 92 30" fill="none" xmlns="http://www.w3.org/2000/svg">
<path fill-rule="evenodd" clip-rule="evenodd" d="M6.7091 25.3228C7.8752 25.3228 8.88157 25.1743 9.72819 24.8775C10.5748 24.5806 11.2697 24.1514 11.8128 23.5897C12.3559 23.0281 12.7593 22.3421 13.0228 21.5318C13.2864 20.7214 13.4182 19.8027 13.4182 18.7757V8.13678H9.82404V18.7998C9.82404 19.8268 9.56845 20.6733 9.05728 21.3392C8.54611 22.0051 7.76339 22.3381 6.7091 22.3381C5.65481 22.3381 4.87208 22.0051 4.36091 21.3392C3.84974 20.6733 3.59416 19.8268 3.59416 18.7998V8.13678H0V18.7757C0 19.8027 0.131786 20.7214 0.395358 21.5318C0.658929 22.3421 1.06227 23.0281 1.60539 23.5897C2.14851 24.1514 2.84338 24.5806 3.69 24.8775C4.53663 25.1743 5.54299 25.3228 6.7091 25.3228ZM23.7215 25.3228C22.7631 25.3228 22.0003 25.1463 21.4333 24.7933C20.8662 24.4403 20.4389 24.0391 20.1513 23.5898V29.7999H16.701V13.5285H20.0315V15.1653C20.351 14.5716 20.8382 14.0942 21.4932 13.7331C22.1481 13.3721 22.8909 13.1915 23.7215 13.1915C24.4244 13.1915 25.0833 13.3319 25.6983 13.6128C26.3133 13.8936 26.8485 14.2988 27.3037 14.8283C27.759 15.3578 28.1184 15.9957 28.382 16.7419C28.6455 17.488 28.7773 18.3265 28.7773 19.2572C28.7773 20.2039 28.6455 21.0504 28.382 21.7966C28.1184 22.5427 27.759 23.1766 27.3037 23.6981C26.8485 24.2196 26.3133 24.6208 25.6983 24.9016C25.0833 25.1824 24.4244 25.3228 23.7215 25.3228ZM20.1273 19.5941C20.1273 20.1397 20.2112 20.6051 20.3789 20.9902C20.5467 21.3753 20.7583 21.6922 21.0139 21.941C21.2695 22.1897 21.553 22.3702 21.8645 22.4825C22.176 22.5949 22.4755 22.651 22.7631 22.651C23.5298 22.651 24.1368 22.3301 24.5841 21.6882C25.0314 21.0464 25.255 20.236 25.255 19.2571C25.255 18.2943 25.0314 17.488 24.5841 16.8381C24.1368 16.1882 23.5298 15.8633 22.7631 15.8633C22.4596 15.8633 22.1521 15.9194 21.8406 16.0318C21.5291 16.1441 21.2455 16.3246 20.9899 16.5733C20.7344 16.8221 20.5267 17.143 20.367 17.5361C20.2072 17.9293 20.1273 18.3986 20.1273 18.9442V19.5941ZM31.2453 8.13678V24.9858H34.6956V8.13678H31.2453ZM37.547 9.84576C37.547 10.4074 37.7267 10.8808 38.0862 11.2659C38.4456 11.651 38.9528 11.8436 39.6077 11.8436C40.2626 11.8436 40.7698 11.651 41.1292 11.2659C41.4886 10.8808 41.6683 10.4074 41.6683 9.84576C41.6683 9.23598 41.4767 8.74255 41.0933 8.36545C40.7099 7.98835 40.2147 7.7998 39.6077 7.7998C39.0007 7.7998 38.5055 7.98835 38.1221 8.36545C37.7387 8.74255 37.547 9.23598 37.547 9.84576ZM37.8825 13.5285V24.9858H41.3329V13.5285H37.8825ZM43.3216 13.5285H45.2145V12.686C45.2145 11.7553 45.3503 10.977 45.6218 10.3512C45.8934 9.72541 46.2408 9.22395 46.6641 8.84685C47.0874 8.46975 47.5627 8.20097 48.0898 8.0405C48.617 7.88004 49.1441 7.7998 49.6713 7.7998C50.3422 7.7998 50.9771 7.88806 51.5762 8.06457C52.1752 8.24109 52.6584 8.48179 53.0258 8.78668L51.66 11.29C51.4843 11.1134 51.2647 10.949 51.0011 10.7965C50.7375 10.6441 50.43 10.5679 50.0786 10.5679C49.7112 10.5679 49.3837 10.7043 49.0962 10.977C48.8087 11.2498 48.6649 11.7633 48.6649 12.5175V13.5285H51.1568V16.0558H48.6649V24.9858H45.2145V16.0558H43.3216V13.5285ZM54.7271 29.7999L56.4523 25.0821L52.0195 13.5285H55.4939C55.8932 14.716 56.2686 15.8152 56.62 16.8261C56.7638 17.2594 56.9116 17.7007 57.0633 18.15C57.2151 18.5993 57.3588 19.0205 57.4946 19.4136C57.6304 19.8068 57.7502 20.1638 57.854 20.4848C57.9579 20.8057 58.0417 21.0624 58.1056 21.255H58.1536C58.2175 21.0624 58.3013 20.8057 58.4051 20.4848C58.509 20.1638 58.6248 19.8068 58.7526 19.4136C58.8804 19.0205 59.0201 18.5993 59.1719 18.15C59.3237 17.7007 59.4714 17.2594 59.6152 16.8261C59.9506 15.8152 60.326 14.716 60.7413 13.5285H64.0001L57.9619 29.7999H54.7271Z" fill="#1A1A1A"/>
<rect x="65" width="27" height="13" rx="6.5" fill="#3679FF"/>
<path d="M71.2681 9V3.18182H72.146V8.24432H74.7823V9H71.2681ZM75.7156 9V4.63636H76.565V9H75.7156ZM76.1445 3.96307C75.9968 3.96307 75.8699 3.91383 75.7638 3.81534C75.6597 3.71496 75.6076 3.59564 75.6076 3.45739C75.6076 3.31723 75.6597 3.19792 75.7638 3.09943C75.8699 2.99905 75.9968 2.94886 76.1445 2.94886C76.2923 2.94886 76.4182 2.99905 76.5224 3.09943C76.6284 3.19792 76.6815 3.31723 76.6815 3.45739C76.6815 3.59564 76.6284 3.71496 76.5224 3.81534C76.4182 3.91383 76.2923 3.96307 76.1445 3.96307ZM78.5572 6.40909V9H77.7077V4.63636H78.5231V5.34659H78.5771C78.6774 5.11553 78.8346 4.92992 79.0487 4.78977C79.2646 4.64962 79.5363 4.57955 79.864 4.57955C80.1613 4.57955 80.4218 4.64205 80.6452 4.76705C80.8687 4.89015 81.042 5.07386 81.1651 5.31818C81.2882 5.5625 81.3498 5.86458 81.3498 6.22443V9H80.5004V6.3267C80.5004 6.01042 80.418 5.76326 80.2532 5.58523C80.0884 5.4053 79.8621 5.31534 79.5742 5.31534C79.3772 5.31534 79.2021 5.35795 79.0487 5.44318C78.8971 5.52841 78.7769 5.65341 78.6879 5.81818C78.6007 5.98106 78.5572 6.17803 78.5572 6.40909ZM83.2702 7.51989L83.2646 6.48295H83.4123L85.1509 4.63636H86.168L84.185 6.73864H84.0515L83.2702 7.51989ZM82.489 9V3.18182H83.3384V9H82.489ZM85.2447 9L83.6822 6.92614L84.2674 6.33239L86.2873 9H85.2447Z" fill="white"/>
</svg>
