<svg width="1024" height="122" viewBox="0 0 1024 122" fill="none" xmlns="http://www.w3.org/2000/svg">
<path d="M938.946 108.113C934.488 107.306 930.043 106.501 925.613 105.709C843.362 91.006 748.236 75.5865 612.896 95.9192C450.594 120.302 309.543 117.071 198.607 110.513C170.747 108.866 146.468 107.138 124.226 105.556C100.126 103.841 78.4173 102.297 57.1378 101.209C32.8462 99.9674 14.1644 99.6967 -0.0951087 100.369L0.11882 14.5858C20.4021 13.8995 41.8952 14.581 63.4485 15.6827C84.165 16.7416 108.838 18.4776 135.072 20.3236C158.02 21.9383 182.164 23.6371 205.9 25.0403C312.799 31.36 444.267 34.1814 594.616 11.594C749.931 -11.7395 860.855 6.49189 947.226 21.9316C976.981 27.2507 1002.01 31.7122 1024.07 34.4949L1023.86 121.058C994.999 118.26 966.7 113.137 938.948 108.113L938.946 108.113Z" fill="#F5F7FC"/>
</svg>
