<svg width="144" height="32" viewBox="0 0 144 32" fill="none" xmlns="http://www.w3.org/2000/svg">
<g clip-path="url(#clip0_20724_103191)">
<path d="M44.7562 4.99717C44.2295 3.02916 42.6828 1.48259 40.7148 0.955783C37.1514 2.86102e-07 22.856 0 22.856 0C22.856 0 8.56065 2.86102e-07 4.99716 0.955783C3.02916 1.48259 1.48259 3.02916 0.955783 4.99717C2.86102e-07 8.56065 0 16 0 16C0 16 2.86102e-07 23.4393 0.955783 27.0028C1.48259 28.9708 3.02916 30.5174 4.99716 31.0441C8.56065 31.9999 22.856 31.9999 22.856 31.9999C22.856 31.9999 37.1514 31.9999 40.7148 31.0441C42.6828 30.5174 44.2295 28.9708 44.7562 27.0028C45.7121 23.4393 45.7121 16 45.7121 16C45.7121 16 45.7082 8.56065 44.7562 4.99717Z" fill="#FF0000"/>
<path d="M18.2812 22.8566L30.1571 16.0006L18.2812 9.14453V22.8566Z" fill="white"/>
<path d="M55.3631 20.8057L50.2305 2.26953H54.7084L56.5071 10.6721C56.9661 12.7417 57.301 14.5066 57.5193 15.9666H57.6509C57.8015 14.9205 58.1402 13.167 58.6633 10.7022L60.5258 2.26953H65.0037L59.8071 20.8057V29.6975H55.3594V20.8057H55.3631Z" fill="#282828"/>
<path d="M66.3499 29.1095C65.4469 28.4999 64.8033 27.5516 64.4195 26.2647C64.0395 24.9778 63.8477 23.2695 63.8477 21.1321V18.2233C63.8477 16.0671 64.0659 14.3325 64.5024 13.0267C64.9389 11.721 65.62 10.7652 66.5456 10.1669C67.4713 9.56862 68.6867 9.26758 70.192 9.26758C71.6745 9.26758 72.8598 9.57238 73.7553 10.182C74.6472 10.7916 75.3019 11.7473 75.7158 13.0418C76.1297 14.34 76.3367 16.0671 76.3367 18.2233V21.1321C76.3367 23.2695 76.1336 24.9853 75.731 26.2797C75.3283 27.578 74.6736 28.5263 73.7704 29.1245C72.8673 29.7229 71.6406 30.0239 70.094 30.0239C68.4985 30.0276 67.2531 29.7191 66.3499 29.1095ZM71.4148 25.9713C71.6632 25.3165 71.7912 24.2516 71.7912 22.769V16.5263C71.7912 15.0888 71.667 14.0352 71.4148 13.3729C71.1627 12.7069 70.7225 12.3758 70.0902 12.3758C69.4808 12.3758 69.048 12.7069 68.7996 13.3729C68.5475 14.039 68.4233 15.0888 68.4233 16.5263V22.769C68.4233 24.2516 68.5436 25.3202 68.7846 25.9713C69.0254 26.626 69.458 26.9533 70.0902 26.9533C70.7225 26.9533 71.1627 26.626 71.4148 25.9713Z" fill="#282828"/>
<path d="M90.9035 29.7014H87.3739L86.9825 27.248H86.8848C85.9251 29.0993 84.4876 30.0249 82.5686 30.0249C81.2403 30.0249 80.2582 29.5884 79.626 28.7193C78.9939 27.8462 78.6777 26.4841 78.6777 24.6328V9.66001H83.1896V24.3692C83.1896 25.2649 83.2873 25.9008 83.483 26.2809C83.6787 26.6609 84.006 26.8528 84.4651 26.8528C84.8564 26.8528 85.2328 26.7324 85.594 26.4916C85.9553 26.2507 86.2187 25.9459 86.3955 25.5772V9.65625H90.9035V29.7014Z" fill="#282828"/>
<path d="M103.161 5.89993H98.6828V29.7004H94.2689V5.89993H89.791V2.27246H103.161V5.89993Z" fill="#282828"/>
<path d="M114.042 29.7014H110.513L110.121 27.248H110.023C109.064 29.0993 107.626 30.0249 105.707 30.0249C104.379 30.0249 103.397 29.5884 102.765 28.7193C102.133 27.8462 101.816 26.4841 101.816 24.6328V9.66001H106.328V24.3692C106.328 25.2649 106.426 25.9008 106.622 26.2809C106.817 26.6609 107.145 26.8528 107.604 26.8528C107.995 26.8528 108.371 26.7324 108.733 26.4916C109.094 26.2507 109.357 25.9459 109.534 25.5772V9.65625H114.042V29.7014Z" fill="#282828"/>
<path d="M128.974 12.8617C128.7 11.5974 128.259 10.683 127.65 10.1148C127.04 9.54657 126.201 9.26435 125.132 9.26435C124.305 9.26435 123.529 9.49764 122.811 9.96801C122.092 10.4384 121.535 11.0517 121.144 11.8156H121.11V1.25684H116.764V29.697H120.489L120.948 27.8005H121.046C121.396 28.4778 121.919 29.0084 122.615 29.4036C123.311 29.7949 124.086 29.9906 124.937 29.9906C126.461 29.9906 127.586 29.2869 128.305 27.8833C129.023 26.4759 129.384 24.2822 129.384 21.2945V18.1223C129.384 15.8833 129.245 14.126 128.974 12.8617ZM124.839 21.0385C124.839 22.4985 124.779 23.6425 124.658 24.4703C124.538 25.2982 124.338 25.889 124.052 26.2351C123.77 26.585 123.386 26.7582 122.908 26.7582C122.536 26.7582 122.194 26.6716 121.877 26.4948C121.561 26.3217 121.306 26.0583 121.11 25.7121V14.3368C121.26 13.7911 121.524 13.3471 121.896 12.9972C122.265 12.6472 122.671 12.4741 123.104 12.4741C123.563 12.4741 123.917 12.6547 124.165 13.0122C124.417 13.3735 124.591 13.9755 124.688 14.826C124.786 15.6764 124.835 16.8842 124.835 18.4534V21.0385H124.839Z" fill="#282828"/>
<path d="M135.785 22.1935C135.785 23.4804 135.823 24.4437 135.898 25.0873C135.973 25.7306 136.131 26.1973 136.372 26.4946C136.613 26.7881 136.982 26.9348 137.482 26.9348C138.156 26.9348 138.622 26.6714 138.871 26.1484C139.123 25.6253 139.258 24.7524 139.281 23.5332L143.172 23.7626C143.194 23.9357 143.206 24.1765 143.206 24.4813C143.206 26.3327 142.698 27.7175 141.685 28.6319C140.673 29.5463 139.239 30.0053 137.388 30.0053C135.164 30.0053 133.606 29.3092 132.715 27.9132C131.819 26.5172 131.375 24.361 131.375 21.4409V17.9414C131.375 14.9348 131.838 12.7373 132.763 11.3525C133.689 9.96777 135.273 9.27539 137.52 9.27539C139.066 9.27539 140.255 9.55761 141.083 10.1258C141.911 10.694 142.494 11.5745 142.833 12.7749C143.172 13.9753 143.341 15.631 143.341 17.7457V21.1775H135.785V22.1935ZM136.357 12.7486C136.127 13.0308 135.977 13.4936 135.898 14.1371C135.823 14.7806 135.785 15.7552 135.785 17.0647V18.5022H139.085V17.0647C139.085 15.7777 139.04 14.8031 138.954 14.1371C138.867 13.4711 138.709 13.0045 138.479 12.7298C138.25 12.4588 137.896 12.3196 137.418 12.3196C136.937 12.3234 136.583 12.4664 136.357 12.7486Z" fill="#282828"/>
</g>
<defs>
<clipPath id="clip0_20724_103191">
<rect width="143.341" height="32" fill="white"/>
</clipPath>
</defs>
</svg>
