<?xml version="1.0" standalone="no"?>
<!DOCTYPE svg PUBLIC "-//W3C//DTD SVG 20010904//EN"
 "http://www.w3.org/TR/2001/REC-SVG-20010904/DTD/svg10.dtd">
<svg version="1.0" xmlns="http://www.w3.org/2000/svg"
 width="700.000000pt" height="700.000000pt" viewBox="0 0 700.000000 700.000000"
 preserveAspectRatio="xMidYMid meet">
<metadata>
Created by potrace 1.14, written by Peter Selinger 2001-2017
</metadata>
<g transform="translate(0.000000,700.000000) scale(0.100000,-0.100000)"
fill="#000000" stroke="none">
<path d="M3280 6993 c-19 -1 -87 -8 -150 -14 -911 -86 -1788 -566 -2369 -1297
-707 -888 -940 -2076 -620 -3168 83 -287 236 -627 389 -872 157 -251 395 -535
609 -729 558 -504 1225 -804 1986 -893 155 -18 460 -24 620 -11 496 39 904
152 1330 366 216 109 340 185 528 326 714 536 1199 1330 1346 2204 37 219 46
336 46 595 0 258 -9 377 -46 593 -93 551 -318 1072 -658 1522 -666 880 -1709
1393 -2811 1383 -91 -1 -181 -3 -200 -5z m-550 -2680 c0 -773 4 -1357 10
-1428 13 -152 39 -256 94 -370 79 -164 170 -260 306 -324 118 -55 178 -66 360
-66 182 0 242 11 360 66 225 105 368 350 400 684 6 69 10 603 10 1428 l0 1317
440 0 440 0 0 -1372 c0 -879 -4 -1414 -11 -1488 -72 -797 -495 -1247 -1274
-1356 -178 -25 -559 -25 -730 0 -223 32 -383 80 -550 162 -427 210 -671 612
-724 1194 -7 74 -11 609 -11 1488 l0 1372 440 0 440 0 0 -1307z"/>
</g>
</svg>
